G04 (created by PCBNEW (2013-07-07 BZR 4022)-stable) date 2/6/2015 4:46:30 PM*
%MOIN*%
G04 Gerber Fmt 3.4, Leading zero omitted, Abs format*
%FSLAX34Y34*%
G01*
G70*
G90*
G04 APERTURE LIST*
%ADD10C,0.00590551*%
%ADD11C,0.00393701*%
%ADD12C,0.011811*%
%ADD13C,0.1*%
G04 APERTURE END LIST*
G54D10*
G54D11*
X81649Y-49236D02*
X81641Y-49236D01*
X81649Y-37870D02*
X81649Y-49236D01*
X89665Y-49242D02*
X89675Y-49242D01*
X89665Y-37775D02*
X89665Y-49242D01*
X86338Y-34665D02*
X86427Y-34665D01*
X86358Y-34665D02*
X86358Y-34675D01*
X84842Y-34665D02*
X86358Y-34665D01*
X84842Y-52440D02*
X84842Y-52431D01*
X86486Y-52440D02*
X84842Y-52440D01*
G54D12*
X82448Y-39371D02*
X82448Y-39315D01*
X82476Y-39259D01*
X82504Y-39231D01*
X82560Y-39202D01*
X82673Y-39174D01*
X82814Y-39174D01*
X82926Y-39202D01*
X82982Y-39231D01*
X83010Y-39259D01*
X83039Y-39315D01*
X83039Y-39371D01*
X83010Y-39427D01*
X82982Y-39456D01*
X82926Y-39484D01*
X82814Y-39512D01*
X82673Y-39512D01*
X82560Y-39484D01*
X82504Y-39456D01*
X82476Y-39427D01*
X82448Y-39371D01*
X82982Y-38921D02*
X83010Y-38893D01*
X83039Y-38921D01*
X83010Y-38949D01*
X82982Y-38921D01*
X83039Y-38921D01*
X83039Y-38331D02*
X83039Y-38668D01*
X83039Y-38499D02*
X82448Y-38499D01*
X82532Y-38556D01*
X82589Y-38612D01*
X82617Y-38668D01*
X82448Y-38106D02*
X82560Y-38106D01*
X82448Y-37881D02*
X82560Y-37881D01*
X83010Y-37206D02*
X83039Y-37121D01*
X83039Y-36981D01*
X83010Y-36925D01*
X82982Y-36896D01*
X82926Y-36868D01*
X82870Y-36868D01*
X82814Y-36896D01*
X82785Y-36925D01*
X82757Y-36981D01*
X82729Y-37093D01*
X82701Y-37150D01*
X82673Y-37178D01*
X82617Y-37206D01*
X82560Y-37206D01*
X82504Y-37178D01*
X82476Y-37150D01*
X82448Y-37093D01*
X82448Y-36953D01*
X82476Y-36868D01*
X83039Y-36531D02*
X83010Y-36587D01*
X82954Y-36615D01*
X82448Y-36615D01*
X83039Y-36222D02*
X83010Y-36278D01*
X82982Y-36306D01*
X82926Y-36334D01*
X82757Y-36334D01*
X82701Y-36306D01*
X82673Y-36278D01*
X82645Y-36222D01*
X82645Y-36137D01*
X82673Y-36081D01*
X82701Y-36053D01*
X82757Y-36025D01*
X82926Y-36025D01*
X82982Y-36053D01*
X83010Y-36081D01*
X83039Y-36137D01*
X83039Y-36222D01*
X82645Y-35856D02*
X82645Y-35631D01*
X82448Y-35772D02*
X82954Y-35772D01*
X83010Y-35743D01*
X83039Y-35687D01*
X83039Y-35631D01*
X88048Y-39371D02*
X88048Y-39315D01*
X88076Y-39259D01*
X88104Y-39231D01*
X88160Y-39202D01*
X88273Y-39174D01*
X88414Y-39174D01*
X88526Y-39202D01*
X88582Y-39231D01*
X88610Y-39259D01*
X88639Y-39315D01*
X88639Y-39371D01*
X88610Y-39427D01*
X88582Y-39456D01*
X88526Y-39484D01*
X88414Y-39512D01*
X88273Y-39512D01*
X88160Y-39484D01*
X88104Y-39456D01*
X88076Y-39427D01*
X88048Y-39371D01*
X88582Y-38921D02*
X88610Y-38893D01*
X88639Y-38921D01*
X88610Y-38949D01*
X88582Y-38921D01*
X88639Y-38921D01*
X88639Y-38331D02*
X88639Y-38668D01*
X88639Y-38499D02*
X88048Y-38499D01*
X88132Y-38556D01*
X88189Y-38612D01*
X88217Y-38668D01*
X88048Y-38106D02*
X88160Y-38106D01*
X88048Y-37881D02*
X88160Y-37881D01*
X88610Y-37206D02*
X88639Y-37121D01*
X88639Y-36981D01*
X88610Y-36925D01*
X88582Y-36896D01*
X88526Y-36868D01*
X88470Y-36868D01*
X88414Y-36896D01*
X88385Y-36925D01*
X88357Y-36981D01*
X88329Y-37093D01*
X88301Y-37150D01*
X88273Y-37178D01*
X88217Y-37206D01*
X88160Y-37206D01*
X88104Y-37178D01*
X88076Y-37150D01*
X88048Y-37093D01*
X88048Y-36953D01*
X88076Y-36868D01*
X88639Y-36531D02*
X88610Y-36587D01*
X88554Y-36615D01*
X88048Y-36615D01*
X88639Y-36222D02*
X88610Y-36278D01*
X88582Y-36306D01*
X88526Y-36334D01*
X88357Y-36334D01*
X88301Y-36306D01*
X88273Y-36278D01*
X88245Y-36222D01*
X88245Y-36137D01*
X88273Y-36081D01*
X88301Y-36053D01*
X88357Y-36025D01*
X88526Y-36025D01*
X88582Y-36053D01*
X88610Y-36081D01*
X88639Y-36137D01*
X88639Y-36222D01*
X88245Y-35856D02*
X88245Y-35631D01*
X88048Y-35772D02*
X88554Y-35772D01*
X88610Y-35743D01*
X88639Y-35687D01*
X88639Y-35631D01*
G54D13*
X87400Y-39400D02*
X87400Y-35800D01*
X83800Y-39400D02*
X84600Y-39400D01*
X83800Y-35800D02*
X83800Y-39400D01*
X87400Y-39400D02*
X86600Y-39400D01*
G54D11*
X84847Y-34665D02*
G75*
G03X81647Y-37865I0J-3200D01*
G74*
G01*
X81646Y-49238D02*
G75*
G03X84846Y-52438I3200J0D01*
G74*
G01*
X86471Y-52438D02*
G75*
G03X89671Y-49238I0J3200D01*
G74*
G01*
X89666Y-37767D02*
G75*
G03X86365Y-34668I-3199J-100D01*
G74*
G01*
M02*
