G04 (created by PCBNEW (2013-07-07 BZR 4022)-stable) date 2/6/2015 4:46:30 PM*
%MOIN*%
G04 Gerber Fmt 3.4, Leading zero omitted, Abs format*
%FSLAX34Y34*%
G01*
G70*
G90*
G04 APERTURE LIST*
%ADD10C,0.00590551*%
%ADD11C,0.006*%
%ADD12C,0.019685*%
%ADD13C,0.0039*%
%ADD14C,0.005*%
%ADD15C,0.0024*%
G04 APERTURE END LIST*
G54D10*
G54D11*
X89207Y-46157D02*
X89092Y-46157D01*
X89081Y-46271D01*
X89092Y-46260D01*
X89115Y-46248D01*
X89172Y-46248D01*
X89195Y-46260D01*
X89207Y-46271D01*
X89218Y-46294D01*
X89218Y-46351D01*
X89207Y-46374D01*
X89195Y-46385D01*
X89172Y-46397D01*
X89115Y-46397D01*
X89092Y-46385D01*
X89081Y-46374D01*
X88195Y-46237D02*
X88195Y-46397D01*
X88138Y-46145D02*
X88081Y-46317D01*
X88230Y-46317D01*
X87070Y-46157D02*
X87218Y-46157D01*
X87138Y-46248D01*
X87172Y-46248D01*
X87195Y-46260D01*
X87207Y-46271D01*
X87218Y-46294D01*
X87218Y-46351D01*
X87207Y-46374D01*
X87195Y-46385D01*
X87172Y-46397D01*
X87104Y-46397D01*
X87081Y-46385D01*
X87070Y-46374D01*
X86081Y-46180D02*
X86092Y-46168D01*
X86115Y-46157D01*
X86172Y-46157D01*
X86195Y-46168D01*
X86207Y-46180D01*
X86218Y-46202D01*
X86218Y-46225D01*
X86207Y-46260D01*
X86070Y-46397D01*
X86218Y-46397D01*
X85218Y-46397D02*
X85081Y-46397D01*
X85150Y-46397D02*
X85150Y-46157D01*
X85127Y-46191D01*
X85104Y-46214D01*
X85081Y-46225D01*
X84138Y-46157D02*
X84161Y-46157D01*
X84184Y-46168D01*
X84195Y-46180D01*
X84207Y-46202D01*
X84218Y-46248D01*
X84218Y-46305D01*
X84207Y-46351D01*
X84195Y-46374D01*
X84184Y-46385D01*
X84161Y-46397D01*
X84138Y-46397D01*
X84115Y-46385D01*
X84104Y-46374D01*
X84092Y-46351D01*
X84081Y-46305D01*
X84081Y-46248D01*
X84092Y-46202D01*
X84104Y-46180D01*
X84115Y-46168D01*
X84138Y-46157D01*
X82978Y-46328D02*
X83092Y-46328D01*
X82955Y-46397D02*
X83035Y-46157D01*
X83115Y-46397D01*
X83321Y-46397D02*
X83184Y-46397D01*
X83252Y-46397D02*
X83252Y-46157D01*
X83230Y-46191D01*
X83207Y-46214D01*
X83184Y-46225D01*
X81978Y-46328D02*
X82092Y-46328D01*
X81955Y-46397D02*
X82035Y-46157D01*
X82115Y-46397D01*
X82241Y-46157D02*
X82264Y-46157D01*
X82287Y-46168D01*
X82298Y-46180D01*
X82310Y-46202D01*
X82321Y-46248D01*
X82321Y-46305D01*
X82310Y-46351D01*
X82298Y-46374D01*
X82287Y-46385D01*
X82264Y-46397D01*
X82241Y-46397D01*
X82218Y-46385D01*
X82207Y-46374D01*
X82195Y-46351D01*
X82184Y-46305D01*
X82184Y-46248D01*
X82195Y-46202D01*
X82207Y-46180D01*
X82218Y-46168D01*
X82241Y-46157D01*
G54D12*
X82700Y-44450D02*
X82700Y-43450D01*
G54D11*
X82767Y-42318D02*
X82744Y-42307D01*
X82710Y-42307D01*
X82675Y-42318D01*
X82652Y-42341D01*
X82641Y-42364D01*
X82630Y-42410D01*
X82630Y-42444D01*
X82641Y-42490D01*
X82652Y-42512D01*
X82675Y-42535D01*
X82710Y-42547D01*
X82732Y-42547D01*
X82767Y-42535D01*
X82778Y-42524D01*
X82778Y-42444D01*
X82732Y-42444D01*
X82881Y-42547D02*
X82881Y-42307D01*
X83018Y-42547D01*
X83018Y-42307D01*
X83132Y-42547D02*
X83132Y-42307D01*
X83190Y-42307D01*
X83224Y-42318D01*
X83247Y-42341D01*
X83258Y-42364D01*
X83270Y-42410D01*
X83270Y-42444D01*
X83258Y-42490D01*
X83247Y-42512D01*
X83224Y-42535D01*
X83190Y-42547D01*
X83132Y-42547D01*
X82972Y-43921D02*
X83007Y-43932D01*
X83018Y-43944D01*
X83030Y-43967D01*
X83030Y-44001D01*
X83018Y-44024D01*
X83007Y-44035D01*
X82984Y-44047D01*
X82892Y-44047D01*
X82892Y-43807D01*
X82972Y-43807D01*
X82995Y-43818D01*
X83007Y-43830D01*
X83018Y-43852D01*
X83018Y-43875D01*
X83007Y-43898D01*
X82995Y-43910D01*
X82972Y-43921D01*
X82892Y-43921D01*
X83121Y-43978D02*
X83235Y-43978D01*
X83098Y-44047D02*
X83178Y-43807D01*
X83258Y-44047D01*
X83304Y-43807D02*
X83441Y-43807D01*
X83372Y-44047D02*
X83372Y-43807D01*
X84057Y-44970D02*
X84297Y-44890D01*
X84057Y-44810D01*
X84274Y-44592D02*
X84285Y-44604D01*
X84297Y-44638D01*
X84297Y-44661D01*
X84285Y-44695D01*
X84262Y-44718D01*
X84240Y-44730D01*
X84194Y-44741D01*
X84160Y-44741D01*
X84114Y-44730D01*
X84091Y-44718D01*
X84068Y-44695D01*
X84057Y-44661D01*
X84057Y-44638D01*
X84068Y-44604D01*
X84080Y-44592D01*
X84274Y-44352D02*
X84285Y-44364D01*
X84297Y-44398D01*
X84297Y-44421D01*
X84285Y-44455D01*
X84262Y-44478D01*
X84240Y-44490D01*
X84194Y-44501D01*
X84160Y-44501D01*
X84114Y-44490D01*
X84091Y-44478D01*
X84068Y-44455D01*
X84057Y-44421D01*
X84057Y-44398D01*
X84068Y-44364D01*
X84080Y-44352D01*
X83525Y-44911D02*
X83388Y-44887D01*
X83428Y-45008D02*
X83259Y-44838D01*
X83323Y-44774D01*
X83347Y-44766D01*
X83364Y-44766D01*
X83388Y-44774D01*
X83412Y-44798D01*
X83420Y-44822D01*
X83420Y-44838D01*
X83412Y-44863D01*
X83347Y-44927D01*
X83582Y-44838D02*
X83614Y-44822D01*
X83655Y-44782D01*
X83663Y-44758D01*
X83663Y-44741D01*
X83655Y-44717D01*
X83638Y-44701D01*
X83614Y-44693D01*
X83598Y-44693D01*
X83574Y-44701D01*
X83533Y-44725D01*
X83509Y-44733D01*
X83493Y-44733D01*
X83469Y-44725D01*
X83453Y-44709D01*
X83444Y-44685D01*
X83444Y-44669D01*
X83453Y-44644D01*
X83493Y-44604D01*
X83525Y-44588D01*
X83566Y-44531D02*
X83663Y-44434D01*
X83784Y-44653D02*
X83614Y-44483D01*
X82527Y-44936D02*
X82503Y-44944D01*
X82479Y-44968D01*
X82463Y-45001D01*
X82463Y-45033D01*
X82471Y-45057D01*
X82495Y-45097D01*
X82519Y-45122D01*
X82560Y-45146D01*
X82584Y-45154D01*
X82616Y-45154D01*
X82648Y-45138D01*
X82665Y-45122D01*
X82681Y-45089D01*
X82681Y-45073D01*
X82624Y-45017D01*
X82592Y-45049D01*
X82770Y-45017D02*
X82600Y-44847D01*
X82867Y-44920D01*
X82697Y-44750D01*
X82947Y-44839D02*
X82778Y-44669D01*
X82818Y-44629D01*
X82851Y-44613D01*
X82883Y-44613D01*
X82907Y-44621D01*
X82947Y-44645D01*
X82972Y-44669D01*
X82996Y-44710D01*
X83004Y-44734D01*
X83004Y-44766D01*
X82988Y-44798D01*
X82947Y-44839D01*
G54D13*
X85000Y-44900D02*
G75*
G03X85000Y-44900I-50J0D01*
G74*
G01*
X85400Y-44900D02*
X85000Y-44900D01*
X85000Y-44900D02*
X85000Y-44300D01*
X85000Y-44300D02*
X85400Y-44300D01*
X85800Y-44300D02*
X86200Y-44300D01*
X86200Y-44300D02*
X86200Y-44900D01*
X86200Y-44900D02*
X85800Y-44900D01*
X85000Y-45850D02*
G75*
G03X85000Y-45850I-50J0D01*
G74*
G01*
X85400Y-45850D02*
X85000Y-45850D01*
X85000Y-45850D02*
X85000Y-45250D01*
X85000Y-45250D02*
X85400Y-45250D01*
X85800Y-45250D02*
X86200Y-45250D01*
X86200Y-45250D02*
X86200Y-45850D01*
X86200Y-45850D02*
X85800Y-45850D01*
G54D10*
X85404Y-37524D02*
X85404Y-37642D01*
X85404Y-37642D02*
X85798Y-37642D01*
X85798Y-37642D02*
X85798Y-37524D01*
X85798Y-37524D02*
X85404Y-37524D01*
X84814Y-37288D02*
X86388Y-37288D01*
X86388Y-37288D02*
X86388Y-38626D01*
X86388Y-38626D02*
X84814Y-38626D01*
X84814Y-38626D02*
X84814Y-37288D01*
G54D14*
X85851Y-36132D02*
X85851Y-36632D01*
X85351Y-36132D02*
X85351Y-36622D01*
X85201Y-36132D02*
X86001Y-36132D01*
X86001Y-36132D02*
X86001Y-36632D01*
X86001Y-36632D02*
X85201Y-36632D01*
X85201Y-36632D02*
X85201Y-36132D01*
X85350Y-43650D02*
X85350Y-43150D01*
X85850Y-43650D02*
X85850Y-43160D01*
X86000Y-43650D02*
X85200Y-43650D01*
X85200Y-43650D02*
X85200Y-43150D01*
X85200Y-43150D02*
X86000Y-43150D01*
X86000Y-43150D02*
X86000Y-43650D01*
X85350Y-42650D02*
X85350Y-42150D01*
X85850Y-42650D02*
X85850Y-42160D01*
X86000Y-42650D02*
X85200Y-42650D01*
X85200Y-42650D02*
X85200Y-42150D01*
X85200Y-42150D02*
X86000Y-42150D01*
X86000Y-42150D02*
X86000Y-42650D01*
X87550Y-41650D02*
X87550Y-41150D01*
X88050Y-41650D02*
X88050Y-41160D01*
X88200Y-41650D02*
X87400Y-41650D01*
X87400Y-41650D02*
X87400Y-41150D01*
X87400Y-41150D02*
X88200Y-41150D01*
X88200Y-41150D02*
X88200Y-41650D01*
G54D10*
X88666Y-43905D02*
X88744Y-43984D01*
X88626Y-43866D02*
X86973Y-43866D01*
X86973Y-43866D02*
X86973Y-42133D01*
X86973Y-42133D02*
X88626Y-42133D01*
X88626Y-42133D02*
X88626Y-43866D01*
G54D15*
X86480Y-44647D02*
X86440Y-44591D01*
X86412Y-44647D02*
X86412Y-44529D01*
X86457Y-44529D01*
X86469Y-44535D01*
X86474Y-44540D01*
X86480Y-44552D01*
X86480Y-44569D01*
X86474Y-44580D01*
X86469Y-44585D01*
X86457Y-44591D01*
X86412Y-44591D01*
X86592Y-44647D02*
X86525Y-44647D01*
X86559Y-44647D02*
X86559Y-44529D01*
X86547Y-44546D01*
X86536Y-44557D01*
X86525Y-44563D01*
X86480Y-45597D02*
X86440Y-45541D01*
X86412Y-45597D02*
X86412Y-45479D01*
X86457Y-45479D01*
X86469Y-45485D01*
X86474Y-45490D01*
X86480Y-45502D01*
X86480Y-45519D01*
X86474Y-45530D01*
X86469Y-45535D01*
X86457Y-45541D01*
X86412Y-45541D01*
X86525Y-45490D02*
X86530Y-45485D01*
X86542Y-45479D01*
X86570Y-45479D01*
X86581Y-45485D01*
X86587Y-45490D01*
X86592Y-45502D01*
X86592Y-45513D01*
X86587Y-45530D01*
X86519Y-45597D01*
X86592Y-45597D01*
X85510Y-38829D02*
X85510Y-38925D01*
X85515Y-38936D01*
X85521Y-38942D01*
X85532Y-38947D01*
X85555Y-38947D01*
X85566Y-38942D01*
X85571Y-38936D01*
X85577Y-38925D01*
X85577Y-38829D01*
X85695Y-38947D02*
X85628Y-38947D01*
X85661Y-38947D02*
X85661Y-38829D01*
X85650Y-38846D01*
X85639Y-38857D01*
X85628Y-38863D01*
X86580Y-36436D02*
X86574Y-36442D01*
X86557Y-36447D01*
X86546Y-36447D01*
X86529Y-36442D01*
X86518Y-36430D01*
X86512Y-36419D01*
X86507Y-36397D01*
X86507Y-36380D01*
X86512Y-36357D01*
X86518Y-36346D01*
X86529Y-36335D01*
X86546Y-36329D01*
X86557Y-36329D01*
X86574Y-36335D01*
X86580Y-36341D01*
X86619Y-36329D02*
X86692Y-36329D01*
X86653Y-36374D01*
X86670Y-36374D01*
X86681Y-36380D01*
X86687Y-36385D01*
X86692Y-36397D01*
X86692Y-36425D01*
X86687Y-36436D01*
X86681Y-36442D01*
X86670Y-36447D01*
X86636Y-36447D01*
X86625Y-36442D01*
X86619Y-36436D01*
X84680Y-43436D02*
X84674Y-43442D01*
X84657Y-43447D01*
X84646Y-43447D01*
X84629Y-43442D01*
X84618Y-43430D01*
X84612Y-43419D01*
X84607Y-43397D01*
X84607Y-43380D01*
X84612Y-43357D01*
X84618Y-43346D01*
X84629Y-43335D01*
X84646Y-43329D01*
X84657Y-43329D01*
X84674Y-43335D01*
X84680Y-43340D01*
X84792Y-43447D02*
X84725Y-43447D01*
X84759Y-43447D02*
X84759Y-43329D01*
X84747Y-43346D01*
X84736Y-43357D01*
X84725Y-43363D01*
X84680Y-42436D02*
X84674Y-42442D01*
X84657Y-42447D01*
X84646Y-42447D01*
X84629Y-42442D01*
X84618Y-42430D01*
X84612Y-42419D01*
X84607Y-42397D01*
X84607Y-42380D01*
X84612Y-42357D01*
X84618Y-42346D01*
X84629Y-42335D01*
X84646Y-42329D01*
X84657Y-42329D01*
X84674Y-42335D01*
X84680Y-42340D01*
X84725Y-42340D02*
X84730Y-42335D01*
X84742Y-42329D01*
X84770Y-42329D01*
X84781Y-42335D01*
X84787Y-42340D01*
X84792Y-42352D01*
X84792Y-42363D01*
X84787Y-42380D01*
X84719Y-42447D01*
X84792Y-42447D01*
X88780Y-41436D02*
X88774Y-41442D01*
X88757Y-41447D01*
X88746Y-41447D01*
X88729Y-41442D01*
X88718Y-41430D01*
X88712Y-41419D01*
X88707Y-41397D01*
X88707Y-41380D01*
X88712Y-41357D01*
X88718Y-41346D01*
X88729Y-41335D01*
X88746Y-41329D01*
X88757Y-41329D01*
X88774Y-41335D01*
X88780Y-41340D01*
X88881Y-41369D02*
X88881Y-41447D01*
X88853Y-41324D02*
X88825Y-41408D01*
X88898Y-41408D01*
X88829Y-43089D02*
X88925Y-43089D01*
X88936Y-43084D01*
X88942Y-43078D01*
X88947Y-43067D01*
X88947Y-43044D01*
X88942Y-43033D01*
X88936Y-43028D01*
X88925Y-43022D01*
X88829Y-43022D01*
X88840Y-42971D02*
X88835Y-42966D01*
X88829Y-42955D01*
X88829Y-42926D01*
X88835Y-42915D01*
X88840Y-42910D01*
X88852Y-42904D01*
X88863Y-42904D01*
X88880Y-42910D01*
X88947Y-42977D01*
X88947Y-42904D01*
M02*
