G04 (created by PCBNEW (2013-07-07 BZR 4022)-stable) date 2/6/2015 4:46:30 PM*
%MOIN*%
G04 Gerber Fmt 3.4, Leading zero omitted, Abs format*
%FSLAX34Y34*%
G01*
G70*
G90*
G04 APERTURE LIST*
%ADD10C,0.00590551*%
%ADD11C,0.06*%
G04 APERTURE END LIST*
G54D10*
G54D11*
X84156Y-51928D03*
X85156Y-51928D03*
X86156Y-51928D03*
X87156Y-51928D03*
X88156Y-50928D03*
X87156Y-50928D03*
X85156Y-50928D03*
X86156Y-50928D03*
X83156Y-50928D03*
X84156Y-50928D03*
X88156Y-48928D03*
X89156Y-48928D03*
X85156Y-48928D03*
X84156Y-48928D03*
X86156Y-48928D03*
X87156Y-48928D03*
X83156Y-48928D03*
X82156Y-48928D03*
X82156Y-49928D03*
X83156Y-49928D03*
X87156Y-49928D03*
X86156Y-49928D03*
X84156Y-49928D03*
X85156Y-49928D03*
X88156Y-49928D03*
X89156Y-49928D03*
X88156Y-47928D03*
X89156Y-47928D03*
X85156Y-47928D03*
X84156Y-47928D03*
X86156Y-47928D03*
X87156Y-47928D03*
X83156Y-47928D03*
X82156Y-47928D03*
X87156Y-46928D03*
X86156Y-46928D03*
X84156Y-46928D03*
X85156Y-46928D03*
X88156Y-46928D03*
X82156Y-45428D03*
X82156Y-44428D03*
X82156Y-42428D03*
X82156Y-43428D03*
X84156Y-45428D03*
X82156Y-46928D03*
X83156Y-46928D03*
X89156Y-46928D03*
X83156Y-45428D03*
M02*
