G04 (created by PCBNEW (2013-07-07 BZR 4022)-stable) date 2/6/2015 4:46:30 PM*
%MOIN*%
G04 Gerber Fmt 3.4, Leading zero omitted, Abs format*
%FSLAX34Y34*%
G01*
G70*
G90*
G04 APERTURE LIST*
%ADD10C,0.00590551*%
%ADD11C,0.06*%
%ADD12R,0.035X0.055*%
%ADD13R,0.015748X0.015748*%
%ADD14R,0.0512X0.059*%
%ADD15R,0.019685X0.023622*%
%ADD16R,0.023622X0.019685*%
G04 APERTURE END LIST*
G54D10*
G54D11*
X84156Y-51928D03*
X85156Y-51928D03*
X86156Y-51928D03*
X87156Y-51928D03*
X88156Y-50928D03*
X87156Y-50928D03*
X85156Y-50928D03*
X86156Y-50928D03*
X83156Y-50928D03*
X84156Y-50928D03*
X88156Y-48928D03*
X89156Y-48928D03*
X85156Y-48928D03*
X84156Y-48928D03*
X86156Y-48928D03*
X87156Y-48928D03*
X83156Y-48928D03*
X82156Y-48928D03*
X82156Y-49928D03*
X83156Y-49928D03*
X87156Y-49928D03*
X86156Y-49928D03*
X84156Y-49928D03*
X85156Y-49928D03*
X88156Y-49928D03*
X89156Y-49928D03*
X88156Y-47928D03*
X89156Y-47928D03*
X85156Y-47928D03*
X84156Y-47928D03*
X86156Y-47928D03*
X87156Y-47928D03*
X83156Y-47928D03*
X82156Y-47928D03*
X87156Y-46928D03*
X86156Y-46928D03*
X84156Y-46928D03*
X85156Y-46928D03*
X88156Y-46928D03*
G54D12*
X85225Y-44600D03*
X85975Y-44600D03*
X85225Y-45550D03*
X85975Y-45550D03*
G54D13*
X85089Y-37563D03*
X85089Y-37957D03*
X85089Y-38351D03*
X86113Y-37563D03*
X86113Y-37957D03*
X86113Y-38351D03*
G54D14*
X85976Y-36382D03*
X85226Y-36382D03*
X85225Y-43400D03*
X85975Y-43400D03*
X85225Y-42400D03*
X85975Y-42400D03*
X87425Y-41400D03*
X88175Y-41400D03*
G54D15*
X88370Y-43590D03*
X88370Y-43000D03*
X88370Y-42409D03*
X87229Y-42409D03*
X87229Y-43000D03*
X87229Y-43590D03*
G54D16*
X87800Y-43590D03*
G54D11*
X82156Y-45428D03*
X82156Y-44428D03*
X82156Y-42428D03*
X82156Y-43428D03*
X84156Y-45428D03*
X82156Y-46928D03*
X83156Y-46928D03*
X89156Y-46928D03*
X83156Y-45428D03*
M02*
