G04 (created by PCBNEW (2013-07-07 BZR 4022)-stable) date 2/6/2015 4:46:30 PM*
%MOIN*%
G04 Gerber Fmt 3.4, Leading zero omitted, Abs format*
%FSLAX34Y34*%
G01*
G70*
G90*
G04 APERTURE LIST*
%ADD10C,0.00590551*%
%ADD11C,0.06*%
%ADD12C,0.035*%
%ADD13C,0.01*%
G04 APERTURE END LIST*
G54D10*
G54D11*
X84156Y-51928D03*
X85156Y-51928D03*
X86156Y-51928D03*
X87156Y-51928D03*
X88156Y-50928D03*
X87156Y-50928D03*
X85156Y-50928D03*
X86156Y-50928D03*
X83156Y-50928D03*
X84156Y-50928D03*
X88156Y-48928D03*
X89156Y-48928D03*
X85156Y-48928D03*
X84156Y-48928D03*
X86156Y-48928D03*
X87156Y-48928D03*
X83156Y-48928D03*
X82156Y-48928D03*
X82156Y-49928D03*
X83156Y-49928D03*
X87156Y-49928D03*
X86156Y-49928D03*
X84156Y-49928D03*
X85156Y-49928D03*
X88156Y-49928D03*
X89156Y-49928D03*
X88156Y-47928D03*
X89156Y-47928D03*
X85156Y-47928D03*
X84156Y-47928D03*
X86156Y-47928D03*
X87156Y-47928D03*
X83156Y-47928D03*
X82156Y-47928D03*
X87156Y-46928D03*
X86156Y-46928D03*
X84156Y-46928D03*
X85156Y-46928D03*
X88156Y-46928D03*
X82156Y-45428D03*
X82156Y-44428D03*
X82156Y-42428D03*
X82156Y-43428D03*
X84156Y-45428D03*
X82156Y-46928D03*
X83156Y-46928D03*
X89156Y-46928D03*
X83156Y-45428D03*
G54D12*
X86700Y-42400D03*
X88000Y-44500D03*
X88500Y-44500D03*
X88500Y-45000D03*
X88000Y-45000D03*
X84800Y-41200D03*
X83950Y-41200D03*
X84700Y-41750D03*
X83300Y-41800D03*
G54D13*
X86700Y-42400D02*
X85900Y-42400D01*
X87800Y-43600D02*
X87800Y-44300D01*
X87800Y-44300D02*
X88000Y-44500D01*
X88500Y-44500D02*
X88500Y-45000D01*
X88500Y-45000D02*
X88000Y-45000D01*
X88000Y-44500D02*
X88500Y-44500D01*
X83950Y-41200D02*
X84800Y-41200D01*
X83350Y-41750D02*
X84700Y-41750D01*
X83300Y-41800D02*
X83350Y-41750D01*
G54D10*
G36*
X89395Y-46350D02*
X84706Y-46350D01*
X84706Y-45319D01*
X84622Y-45117D01*
X84468Y-44962D01*
X84265Y-44878D01*
X84047Y-44878D01*
X83844Y-44961D01*
X83690Y-45116D01*
X83656Y-45198D01*
X83622Y-45117D01*
X83468Y-44962D01*
X83265Y-44878D01*
X83047Y-44878D01*
X82844Y-44961D01*
X82710Y-45095D01*
X82710Y-42510D01*
X82699Y-42291D01*
X82637Y-42140D01*
X82541Y-42113D01*
X82226Y-42428D01*
X82541Y-42743D01*
X82637Y-42716D01*
X82710Y-42510D01*
X82710Y-45095D01*
X82690Y-45116D01*
X82658Y-45192D01*
X82637Y-45140D01*
X82541Y-45113D01*
X82226Y-45428D01*
X82541Y-45743D01*
X82637Y-45716D01*
X82657Y-45661D01*
X82689Y-45739D01*
X82844Y-45894D01*
X83046Y-45978D01*
X83264Y-45978D01*
X83467Y-45895D01*
X83622Y-45740D01*
X83656Y-45658D01*
X83689Y-45739D01*
X83844Y-45894D01*
X84046Y-45978D01*
X84264Y-45978D01*
X84467Y-45895D01*
X84622Y-45740D01*
X84705Y-45538D01*
X84706Y-45319D01*
X84706Y-46350D01*
X81919Y-46350D01*
X81919Y-45927D01*
X82074Y-45983D01*
X82292Y-45972D01*
X82443Y-45909D01*
X82471Y-45814D01*
X82156Y-45499D01*
X82150Y-45504D01*
X82079Y-45434D01*
X82085Y-45428D01*
X82079Y-45422D01*
X82150Y-45352D01*
X82156Y-45357D01*
X82471Y-45042D01*
X82443Y-44947D01*
X82388Y-44927D01*
X82467Y-44895D01*
X82622Y-44740D01*
X82705Y-44538D01*
X82706Y-44319D01*
X82622Y-44117D01*
X82468Y-43962D01*
X82386Y-43928D01*
X82467Y-43895D01*
X82622Y-43740D01*
X82705Y-43538D01*
X82706Y-43319D01*
X82622Y-43117D01*
X82468Y-42962D01*
X82392Y-42931D01*
X82443Y-42909D01*
X82471Y-42814D01*
X82156Y-42499D01*
X82150Y-42504D01*
X82079Y-42434D01*
X82085Y-42428D01*
X82079Y-42422D01*
X82150Y-42352D01*
X82156Y-42357D01*
X82471Y-42042D01*
X82443Y-41947D01*
X82237Y-41873D01*
X82019Y-41884D01*
X81919Y-41926D01*
X81919Y-41050D01*
X83552Y-41050D01*
X83525Y-41115D01*
X83524Y-41284D01*
X83589Y-41440D01*
X83599Y-41450D01*
X83551Y-41450D01*
X83541Y-41439D01*
X83384Y-41375D01*
X83215Y-41374D01*
X83059Y-41439D01*
X82939Y-41558D01*
X82875Y-41715D01*
X82874Y-41884D01*
X82939Y-42040D01*
X83058Y-42160D01*
X83215Y-42224D01*
X83384Y-42225D01*
X83540Y-42160D01*
X83651Y-42050D01*
X84398Y-42050D01*
X84458Y-42110D01*
X84615Y-42174D01*
X84784Y-42175D01*
X84940Y-42110D01*
X85060Y-41991D01*
X85124Y-41834D01*
X85125Y-41665D01*
X85069Y-41531D01*
X85160Y-41441D01*
X85224Y-41284D01*
X85225Y-41115D01*
X85197Y-41050D01*
X89395Y-41050D01*
X89395Y-46350D01*
X89395Y-46350D01*
G37*
G54D13*
X89395Y-46350D02*
X84706Y-46350D01*
X84706Y-45319D01*
X84622Y-45117D01*
X84468Y-44962D01*
X84265Y-44878D01*
X84047Y-44878D01*
X83844Y-44961D01*
X83690Y-45116D01*
X83656Y-45198D01*
X83622Y-45117D01*
X83468Y-44962D01*
X83265Y-44878D01*
X83047Y-44878D01*
X82844Y-44961D01*
X82710Y-45095D01*
X82710Y-42510D01*
X82699Y-42291D01*
X82637Y-42140D01*
X82541Y-42113D01*
X82226Y-42428D01*
X82541Y-42743D01*
X82637Y-42716D01*
X82710Y-42510D01*
X82710Y-45095D01*
X82690Y-45116D01*
X82658Y-45192D01*
X82637Y-45140D01*
X82541Y-45113D01*
X82226Y-45428D01*
X82541Y-45743D01*
X82637Y-45716D01*
X82657Y-45661D01*
X82689Y-45739D01*
X82844Y-45894D01*
X83046Y-45978D01*
X83264Y-45978D01*
X83467Y-45895D01*
X83622Y-45740D01*
X83656Y-45658D01*
X83689Y-45739D01*
X83844Y-45894D01*
X84046Y-45978D01*
X84264Y-45978D01*
X84467Y-45895D01*
X84622Y-45740D01*
X84705Y-45538D01*
X84706Y-45319D01*
X84706Y-46350D01*
X81919Y-46350D01*
X81919Y-45927D01*
X82074Y-45983D01*
X82292Y-45972D01*
X82443Y-45909D01*
X82471Y-45814D01*
X82156Y-45499D01*
X82150Y-45504D01*
X82079Y-45434D01*
X82085Y-45428D01*
X82079Y-45422D01*
X82150Y-45352D01*
X82156Y-45357D01*
X82471Y-45042D01*
X82443Y-44947D01*
X82388Y-44927D01*
X82467Y-44895D01*
X82622Y-44740D01*
X82705Y-44538D01*
X82706Y-44319D01*
X82622Y-44117D01*
X82468Y-43962D01*
X82386Y-43928D01*
X82467Y-43895D01*
X82622Y-43740D01*
X82705Y-43538D01*
X82706Y-43319D01*
X82622Y-43117D01*
X82468Y-42962D01*
X82392Y-42931D01*
X82443Y-42909D01*
X82471Y-42814D01*
X82156Y-42499D01*
X82150Y-42504D01*
X82079Y-42434D01*
X82085Y-42428D01*
X82079Y-42422D01*
X82150Y-42352D01*
X82156Y-42357D01*
X82471Y-42042D01*
X82443Y-41947D01*
X82237Y-41873D01*
X82019Y-41884D01*
X81919Y-41926D01*
X81919Y-41050D01*
X83552Y-41050D01*
X83525Y-41115D01*
X83524Y-41284D01*
X83589Y-41440D01*
X83599Y-41450D01*
X83551Y-41450D01*
X83541Y-41439D01*
X83384Y-41375D01*
X83215Y-41374D01*
X83059Y-41439D01*
X82939Y-41558D01*
X82875Y-41715D01*
X82874Y-41884D01*
X82939Y-42040D01*
X83058Y-42160D01*
X83215Y-42224D01*
X83384Y-42225D01*
X83540Y-42160D01*
X83651Y-42050D01*
X84398Y-42050D01*
X84458Y-42110D01*
X84615Y-42174D01*
X84784Y-42175D01*
X84940Y-42110D01*
X85060Y-41991D01*
X85124Y-41834D01*
X85125Y-41665D01*
X85069Y-41531D01*
X85160Y-41441D01*
X85224Y-41284D01*
X85225Y-41115D01*
X85197Y-41050D01*
X89395Y-41050D01*
X89395Y-46350D01*
M02*
