M48
INCH,TZ
T1C0.025
T2C0.040
%
G90
G05
T1
X83300Y-41800
X83950Y-41200
X84700Y-41750
X84800Y-41200
X86700Y-42400
X88000Y-44500
X88000Y-45000
X88500Y-44500
X88500Y-45000
T2
X82156Y-42429
X82156Y-43429
X82156Y-44429
X82156Y-45429
X82156Y-46929
X82156Y-47929
X82156Y-48929
X82156Y-49929
X83156Y-45429
X83156Y-46929
X83156Y-47929
X83156Y-48929
X83156Y-49929
X83156Y-50929
X84156Y-45429
X84156Y-46929
X84156Y-47929
X84156Y-48929
X84156Y-49929
X84156Y-50929
X84156Y-51929
X85156Y-46929
X85156Y-47929
X85156Y-48929
X85156Y-49929
X85156Y-50929
X85156Y-51929
X86156Y-46929
X86156Y-47929
X86156Y-48929
X86156Y-49929
X86156Y-50929
X86156Y-51929
X87156Y-46929
X87156Y-47929
X87156Y-48929
X87156Y-49929
X87156Y-50929
X87156Y-51929
X88156Y-46929
X88156Y-47929
X88156Y-48929
X88156Y-49929
X88156Y-50929
X89156Y-46929
X89156Y-47929
X89156Y-48929
X89156Y-49929
T0
M30
