G04 (created by PCBNEW (2013-07-07 BZR 4022)-stable) date 2/6/2015 4:46:30 PM*
%MOIN*%
G04 Gerber Fmt 3.4, Leading zero omitted, Abs format*
%FSLAX34Y34*%
G01*
G70*
G90*
G04 APERTURE LIST*
%ADD10C,0.00590551*%
%ADD11C,0.0075*%
%ADD12C,0.0001*%
G04 APERTURE END LIST*
G54D10*
G54D11*
X87049Y-35221D02*
X87149Y-35078D01*
X87221Y-35221D02*
X87221Y-34921D01*
X87107Y-34921D01*
X87078Y-34935D01*
X87064Y-34950D01*
X87049Y-34978D01*
X87049Y-35021D01*
X87064Y-35050D01*
X87078Y-35064D01*
X87107Y-35078D01*
X87221Y-35078D01*
X86807Y-35207D02*
X86835Y-35221D01*
X86892Y-35221D01*
X86921Y-35207D01*
X86935Y-35178D01*
X86935Y-35064D01*
X86921Y-35035D01*
X86892Y-35021D01*
X86835Y-35021D01*
X86807Y-35035D01*
X86792Y-35064D01*
X86792Y-35092D01*
X86935Y-35121D01*
X86692Y-35021D02*
X86621Y-35221D01*
X86549Y-35021D01*
X86435Y-35192D02*
X86421Y-35207D01*
X86435Y-35221D01*
X86449Y-35207D01*
X86435Y-35192D01*
X86435Y-35221D01*
X86078Y-35135D02*
X85935Y-35135D01*
X86107Y-35221D02*
X86007Y-34921D01*
X85907Y-35221D01*
X85578Y-35107D02*
X85350Y-35107D01*
X84992Y-34950D02*
X84978Y-34935D01*
X84950Y-34921D01*
X84878Y-34921D01*
X84850Y-34935D01*
X84835Y-34950D01*
X84821Y-34978D01*
X84821Y-35007D01*
X84835Y-35050D01*
X85007Y-35221D01*
X84821Y-35221D01*
X84635Y-34921D02*
X84607Y-34921D01*
X84578Y-34935D01*
X84564Y-34950D01*
X84550Y-34978D01*
X84535Y-35035D01*
X84535Y-35107D01*
X84550Y-35164D01*
X84564Y-35192D01*
X84578Y-35207D01*
X84607Y-35221D01*
X84635Y-35221D01*
X84664Y-35207D01*
X84678Y-35192D01*
X84692Y-35164D01*
X84707Y-35107D01*
X84707Y-35035D01*
X84692Y-34978D01*
X84678Y-34950D01*
X84664Y-34935D01*
X84635Y-34921D01*
X84250Y-35221D02*
X84421Y-35221D01*
X84335Y-35221D02*
X84335Y-34921D01*
X84364Y-34964D01*
X84392Y-34992D01*
X84421Y-35007D01*
X83978Y-34921D02*
X84121Y-34921D01*
X84135Y-35064D01*
X84121Y-35050D01*
X84092Y-35035D01*
X84021Y-35035D01*
X83992Y-35050D01*
X83978Y-35064D01*
X83964Y-35092D01*
X83964Y-35164D01*
X83978Y-35192D01*
X83992Y-35207D01*
X84021Y-35221D01*
X84092Y-35221D01*
X84121Y-35207D01*
X84135Y-35192D01*
G54D12*
G36*
X83742Y-48366D02*
X83621Y-48341D01*
X83536Y-48274D01*
X83516Y-48216D01*
X83750Y-48216D01*
X83837Y-48211D01*
X83876Y-48188D01*
X83883Y-48150D01*
X83872Y-48106D01*
X83825Y-48083D01*
X83739Y-48072D01*
X83650Y-48069D01*
X83610Y-48082D01*
X83603Y-48118D01*
X83606Y-48139D01*
X83623Y-48189D01*
X83668Y-48212D01*
X83750Y-48216D01*
X83516Y-48216D01*
X83501Y-48176D01*
X83500Y-48164D01*
X83492Y-48095D01*
X83471Y-48066D01*
X83416Y-48095D01*
X83384Y-48164D01*
X83386Y-48246D01*
X83392Y-48311D01*
X83362Y-48332D01*
X83354Y-48333D01*
X83318Y-48304D01*
X83300Y-48234D01*
X83299Y-48145D01*
X83317Y-48059D01*
X83352Y-47998D01*
X83355Y-47995D01*
X83421Y-47969D01*
X83542Y-47949D01*
X83693Y-47938D01*
X83830Y-47933D01*
X83913Y-47934D01*
X83953Y-47944D01*
X83964Y-47965D01*
X83958Y-47996D01*
X83956Y-48059D01*
X83970Y-48085D01*
X83999Y-48134D01*
X83983Y-48200D01*
X83931Y-48271D01*
X83858Y-48330D01*
X83773Y-48363D01*
X83742Y-48366D01*
X83742Y-48366D01*
X83742Y-48366D01*
G37*
G36*
X83731Y-41366D02*
X83607Y-41364D01*
X83538Y-41356D01*
X83508Y-41339D01*
X83506Y-41308D01*
X83531Y-41270D01*
X83595Y-41247D01*
X83700Y-41233D01*
X83814Y-41217D01*
X83875Y-41191D01*
X83894Y-41160D01*
X83889Y-41126D01*
X83850Y-41107D01*
X83764Y-41096D01*
X83713Y-41093D01*
X83585Y-41077D01*
X83515Y-41049D01*
X83507Y-41008D01*
X83522Y-40989D01*
X83566Y-40976D01*
X83653Y-40967D01*
X83706Y-40966D01*
X83832Y-40983D01*
X83928Y-41026D01*
X83982Y-41089D01*
X83982Y-41160D01*
X83964Y-41240D01*
X83962Y-41291D01*
X83960Y-41330D01*
X83938Y-41353D01*
X83884Y-41363D01*
X83782Y-41366D01*
X83731Y-41366D01*
X83731Y-41366D01*
X83731Y-41366D01*
G37*
G36*
X83740Y-41868D02*
X83637Y-41849D01*
X83553Y-41793D01*
X83536Y-41761D01*
X83747Y-41761D01*
X83828Y-41739D01*
X83879Y-41690D01*
X83882Y-41624D01*
X83837Y-41587D01*
X83758Y-41566D01*
X83675Y-41566D01*
X83622Y-41588D01*
X83600Y-41649D01*
X83618Y-41716D01*
X83653Y-41746D01*
X83747Y-41761D01*
X83536Y-41761D01*
X83505Y-41707D01*
X83500Y-41664D01*
X83523Y-41568D01*
X83567Y-41500D01*
X83667Y-41442D01*
X83782Y-41440D01*
X83892Y-41491D01*
X83918Y-41515D01*
X83984Y-41598D01*
X83992Y-41673D01*
X83945Y-41760D01*
X83931Y-41778D01*
X83844Y-41846D01*
X83740Y-41868D01*
X83740Y-41868D01*
X83740Y-41868D01*
G37*
G36*
X83736Y-42050D02*
X83599Y-42042D01*
X83520Y-42019D01*
X83504Y-41982D01*
X83522Y-41956D01*
X83565Y-41944D01*
X83654Y-41936D01*
X83758Y-41933D01*
X83874Y-41935D01*
X83937Y-41944D01*
X83961Y-41965D01*
X83960Y-41991D01*
X83943Y-42024D01*
X83897Y-42042D01*
X83807Y-42049D01*
X83736Y-42050D01*
X83736Y-42050D01*
X83736Y-42050D01*
G37*
G36*
X83917Y-42433D02*
X83873Y-42409D01*
X83867Y-42389D01*
X83839Y-42357D01*
X83775Y-42358D01*
X83673Y-42356D01*
X83592Y-42336D01*
X83523Y-42293D01*
X83501Y-42221D01*
X83500Y-42200D01*
X83515Y-42121D01*
X83550Y-42100D01*
X83591Y-42127D01*
X83600Y-42166D01*
X83612Y-42210D01*
X83658Y-42229D01*
X83730Y-42233D01*
X83820Y-42225D01*
X83865Y-42194D01*
X83876Y-42166D01*
X83906Y-42112D01*
X83930Y-42100D01*
X83960Y-42127D01*
X83967Y-42166D01*
X83988Y-42220D01*
X84017Y-42233D01*
X84057Y-42261D01*
X84067Y-42303D01*
X84052Y-42354D01*
X84017Y-42354D01*
X83974Y-42359D01*
X83967Y-42384D01*
X83940Y-42427D01*
X83917Y-42433D01*
X83917Y-42433D01*
X83917Y-42433D01*
G37*
G36*
X83622Y-42818D02*
X83607Y-42813D01*
X83551Y-42785D01*
X83524Y-42740D01*
X83519Y-42693D01*
X83658Y-42693D01*
X83708Y-42660D01*
X83717Y-42633D01*
X83689Y-42586D01*
X83658Y-42573D01*
X83611Y-42584D01*
X83600Y-42633D01*
X83617Y-42688D01*
X83658Y-42693D01*
X83519Y-42693D01*
X83515Y-42656D01*
X83514Y-42624D01*
X83511Y-42466D01*
X83705Y-42466D01*
X83819Y-42470D01*
X83888Y-42485D01*
X83932Y-42520D01*
X83953Y-42549D01*
X83991Y-42659D01*
X83986Y-42718D01*
X83955Y-42781D01*
X83918Y-42785D01*
X83891Y-42736D01*
X83885Y-42683D01*
X83871Y-42610D01*
X83842Y-42575D01*
X83810Y-42591D01*
X83800Y-42659D01*
X83778Y-42764D01*
X83716Y-42818D01*
X83622Y-42818D01*
X83622Y-42818D01*
X83622Y-42818D01*
G37*
G36*
X83917Y-43166D02*
X83872Y-43148D01*
X83867Y-43133D01*
X83837Y-43113D01*
X83762Y-43101D01*
X83723Y-43100D01*
X83625Y-43091D01*
X83553Y-43069D01*
X83540Y-43060D01*
X83507Y-42999D01*
X83502Y-42929D01*
X83524Y-42877D01*
X83550Y-42866D01*
X83592Y-42893D01*
X83600Y-42925D01*
X83615Y-42963D01*
X83670Y-42980D01*
X83733Y-42983D01*
X83822Y-42976D01*
X83861Y-42952D01*
X83867Y-42925D01*
X83890Y-42875D01*
X83917Y-42866D01*
X83958Y-42894D01*
X83967Y-42933D01*
X83983Y-42983D01*
X84007Y-42991D01*
X84046Y-43011D01*
X84059Y-43041D01*
X84048Y-43091D01*
X84019Y-43100D01*
X83973Y-43117D01*
X83967Y-43133D01*
X83940Y-43162D01*
X83917Y-43166D01*
X83917Y-43166D01*
X83917Y-43166D01*
G37*
G36*
X83867Y-43596D02*
X83748Y-43593D01*
X83744Y-43593D01*
X83618Y-43584D01*
X83546Y-43568D01*
X83518Y-43544D01*
X83517Y-43533D01*
X83538Y-43499D01*
X83610Y-43479D01*
X83683Y-43472D01*
X83812Y-43452D01*
X83883Y-43410D01*
X83900Y-43359D01*
X83870Y-43345D01*
X83792Y-43333D01*
X83711Y-43326D01*
X83584Y-43311D01*
X83515Y-43282D01*
X83507Y-43241D01*
X83522Y-43222D01*
X83566Y-43209D01*
X83653Y-43201D01*
X83717Y-43200D01*
X83861Y-43216D01*
X83953Y-43264D01*
X83989Y-43339D01*
X83980Y-43405D01*
X83963Y-43492D01*
X83963Y-43543D01*
X83961Y-43574D01*
X83933Y-43591D01*
X83867Y-43596D01*
X83867Y-43596D01*
X83867Y-43596D01*
G37*
G36*
X83703Y-44064D02*
X83604Y-44027D01*
X83531Y-43947D01*
X83500Y-43830D01*
X83500Y-43822D01*
X83506Y-43739D01*
X83521Y-43690D01*
X83522Y-43688D01*
X83565Y-43667D01*
X83593Y-43708D01*
X83606Y-43791D01*
X83627Y-43886D01*
X83670Y-43926D01*
X83675Y-43927D01*
X83691Y-43925D01*
X83842Y-43925D01*
X83881Y-43884D01*
X83883Y-43866D01*
X83857Y-43816D01*
X83842Y-43808D01*
X83808Y-43823D01*
X83800Y-43866D01*
X83816Y-43919D01*
X83842Y-43925D01*
X83691Y-43925D01*
X83713Y-43922D01*
X83730Y-43879D01*
X83733Y-43802D01*
X83739Y-43714D01*
X83761Y-43674D01*
X83800Y-43666D01*
X83877Y-43692D01*
X83951Y-43752D01*
X83996Y-43825D01*
X84000Y-43851D01*
X83978Y-43908D01*
X83924Y-43978D01*
X83918Y-43984D01*
X83813Y-44052D01*
X83703Y-44064D01*
X83703Y-44064D01*
X83703Y-44064D01*
G37*
G36*
X83729Y-44766D02*
X83604Y-44763D01*
X83532Y-44752D01*
X83503Y-44731D01*
X83500Y-44716D01*
X83518Y-44684D01*
X83581Y-44669D01*
X83663Y-44666D01*
X83782Y-44653D01*
X83863Y-44619D01*
X83895Y-44570D01*
X83884Y-44534D01*
X83842Y-44515D01*
X83754Y-44502D01*
X83682Y-44500D01*
X83572Y-44495D01*
X83515Y-44479D01*
X83500Y-44450D01*
X83518Y-44418D01*
X83581Y-44402D01*
X83663Y-44400D01*
X83782Y-44387D01*
X83863Y-44353D01*
X83895Y-44303D01*
X83884Y-44268D01*
X83842Y-44248D01*
X83754Y-44236D01*
X83682Y-44233D01*
X83567Y-44227D01*
X83510Y-44208D01*
X83500Y-44188D01*
X83515Y-44132D01*
X83522Y-44122D01*
X83574Y-44105D01*
X83665Y-44100D01*
X83770Y-44107D01*
X83862Y-44125D01*
X83878Y-44131D01*
X83960Y-44192D01*
X83989Y-44282D01*
X83966Y-44367D01*
X83947Y-44443D01*
X83963Y-44479D01*
X83981Y-44537D01*
X83980Y-44627D01*
X83978Y-44643D01*
X83958Y-44766D01*
X83729Y-44766D01*
X83729Y-44766D01*
X83729Y-44766D01*
G37*
G36*
X83773Y-45233D02*
X83661Y-45226D01*
X83574Y-45209D01*
X83540Y-45193D01*
X83505Y-45121D01*
X83501Y-45027D01*
X83526Y-44942D01*
X83565Y-44901D01*
X83642Y-44876D01*
X83741Y-44865D01*
X83842Y-44867D01*
X83924Y-44882D01*
X83965Y-44907D01*
X83967Y-44914D01*
X83944Y-44946D01*
X83870Y-44966D01*
X83792Y-44973D01*
X83688Y-44982D01*
X83633Y-45001D01*
X83610Y-45037D01*
X83606Y-45058D01*
X83605Y-45101D01*
X83628Y-45123D01*
X83691Y-45132D01*
X83781Y-45133D01*
X83893Y-45137D01*
X83950Y-45153D01*
X83967Y-45182D01*
X83967Y-45183D01*
X83951Y-45212D01*
X83895Y-45228D01*
X83787Y-45233D01*
X83773Y-45233D01*
X83773Y-45233D01*
X83773Y-45233D01*
G37*
G36*
X83736Y-45533D02*
X83607Y-45530D01*
X83533Y-45519D01*
X83503Y-45498D01*
X83500Y-45485D01*
X83523Y-45453D01*
X83597Y-45433D01*
X83675Y-45426D01*
X83784Y-45415D01*
X83846Y-45391D01*
X83880Y-45348D01*
X83883Y-45341D01*
X83917Y-45284D01*
X83939Y-45266D01*
X83979Y-45292D01*
X83988Y-45348D01*
X83978Y-45375D01*
X83960Y-45442D01*
X83961Y-45475D01*
X83959Y-45505D01*
X83929Y-45523D01*
X83858Y-45531D01*
X83736Y-45533D01*
X83736Y-45533D01*
X83736Y-45533D01*
G37*
G36*
X83917Y-45900D02*
X83872Y-45882D01*
X83867Y-45866D01*
X83837Y-45846D01*
X83762Y-45834D01*
X83723Y-45833D01*
X83625Y-45824D01*
X83553Y-45802D01*
X83540Y-45793D01*
X83508Y-45729D01*
X83502Y-45650D01*
X83525Y-45590D01*
X83534Y-45583D01*
X83569Y-45593D01*
X83595Y-45636D01*
X83638Y-45685D01*
X83710Y-45713D01*
X83788Y-45718D01*
X83847Y-45697D01*
X83867Y-45658D01*
X83890Y-45609D01*
X83917Y-45600D01*
X83958Y-45627D01*
X83967Y-45666D01*
X83983Y-45716D01*
X84007Y-45725D01*
X84046Y-45744D01*
X84059Y-45775D01*
X84048Y-45824D01*
X84019Y-45833D01*
X83973Y-45850D01*
X83967Y-45866D01*
X83940Y-45896D01*
X83917Y-45900D01*
X83917Y-45900D01*
X83917Y-45900D01*
G37*
G36*
X83550Y-46233D02*
X83515Y-46205D01*
X83500Y-46138D01*
X83506Y-46054D01*
X83533Y-45979D01*
X83553Y-45952D01*
X83613Y-45909D01*
X83647Y-45900D01*
X83706Y-45927D01*
X83768Y-45995D01*
X83812Y-46077D01*
X83842Y-46118D01*
X83874Y-46108D01*
X83890Y-46060D01*
X83886Y-46013D01*
X83888Y-45950D01*
X83921Y-45931D01*
X83963Y-45958D01*
X83983Y-46000D01*
X83990Y-46103D01*
X83947Y-46184D01*
X83883Y-46219D01*
X83791Y-46223D01*
X83729Y-46175D01*
X83699Y-46113D01*
X83659Y-46045D01*
X83623Y-46042D01*
X83602Y-46100D01*
X83600Y-46133D01*
X83585Y-46212D01*
X83550Y-46233D01*
X83550Y-46233D01*
X83550Y-46233D01*
G37*
G36*
X83734Y-46683D02*
X83614Y-46680D01*
X83545Y-46668D01*
X83514Y-46645D01*
X83507Y-46625D01*
X83509Y-46591D01*
X83544Y-46573D01*
X83625Y-46567D01*
X83677Y-46566D01*
X83794Y-46560D01*
X83858Y-46540D01*
X83880Y-46513D01*
X83889Y-46454D01*
X83855Y-46418D01*
X83769Y-46402D01*
X83682Y-46400D01*
X83572Y-46395D01*
X83515Y-46379D01*
X83500Y-46350D01*
X83516Y-46320D01*
X83571Y-46305D01*
X83679Y-46300D01*
X83695Y-46300D01*
X83850Y-46315D01*
X83949Y-46359D01*
X83990Y-46432D01*
X83980Y-46505D01*
X83959Y-46587D01*
X83952Y-46633D01*
X83936Y-46661D01*
X83882Y-46677D01*
X83779Y-46683D01*
X83734Y-46683D01*
X83734Y-46683D01*
X83734Y-46683D01*
G37*
G36*
X83819Y-46900D02*
X83668Y-46898D01*
X83572Y-46892D01*
X83520Y-46879D01*
X83501Y-46858D01*
X83500Y-46848D01*
X83525Y-46793D01*
X83545Y-46780D01*
X83598Y-46773D01*
X83698Y-46770D01*
X83825Y-46772D01*
X83853Y-46773D01*
X83988Y-46780D01*
X84070Y-46792D01*
X84112Y-46812D01*
X84127Y-46841D01*
X84126Y-46868D01*
X84102Y-46885D01*
X84044Y-46895D01*
X83940Y-46899D01*
X83819Y-46900D01*
X83819Y-46900D01*
X83819Y-46900D01*
G37*
G36*
X83682Y-47703D02*
X83601Y-47691D01*
X83543Y-47622D01*
X83530Y-47566D01*
X83661Y-47566D01*
X83733Y-47552D01*
X83740Y-47526D01*
X83984Y-47526D01*
X84020Y-47520D01*
X84057Y-47491D01*
X84041Y-47461D01*
X83983Y-47440D01*
X83947Y-47446D01*
X83910Y-47475D01*
X83926Y-47505D01*
X83984Y-47526D01*
X83740Y-47526D01*
X83744Y-47509D01*
X83712Y-47461D01*
X83649Y-47407D01*
X83612Y-47415D01*
X83600Y-47483D01*
X83617Y-47549D01*
X83661Y-47566D01*
X83530Y-47566D01*
X83512Y-47497D01*
X83508Y-47381D01*
X83515Y-47271D01*
X83526Y-47194D01*
X83539Y-47166D01*
X83577Y-47190D01*
X83584Y-47200D01*
X83628Y-47215D01*
X83667Y-47200D01*
X83743Y-47172D01*
X83781Y-47166D01*
X83826Y-47186D01*
X83828Y-47229D01*
X83790Y-47272D01*
X83764Y-47284D01*
X83717Y-47305D01*
X83724Y-47335D01*
X83750Y-47366D01*
X83794Y-47407D01*
X83829Y-47401D01*
X83870Y-47363D01*
X83960Y-47305D01*
X84043Y-47307D01*
X84105Y-47363D01*
X84133Y-47469D01*
X84133Y-47488D01*
X84109Y-47589D01*
X84044Y-47647D01*
X83953Y-47652D01*
X83919Y-47640D01*
X83837Y-47627D01*
X83784Y-47653D01*
X83682Y-47703D01*
X83682Y-47703D01*
X83682Y-47703D01*
G37*
G36*
X83729Y-48800D02*
X83604Y-48796D01*
X83532Y-48786D01*
X83503Y-48764D01*
X83500Y-48750D01*
X83518Y-48718D01*
X83581Y-48702D01*
X83663Y-48700D01*
X83782Y-48687D01*
X83863Y-48653D01*
X83895Y-48603D01*
X83884Y-48568D01*
X83842Y-48548D01*
X83754Y-48536D01*
X83682Y-48533D01*
X83572Y-48528D01*
X83515Y-48512D01*
X83500Y-48483D01*
X83515Y-48455D01*
X83567Y-48439D01*
X83668Y-48433D01*
X83716Y-48433D01*
X83857Y-48441D01*
X83943Y-48472D01*
X83982Y-48534D01*
X83984Y-48636D01*
X83978Y-48678D01*
X83958Y-48800D01*
X83729Y-48800D01*
X83729Y-48800D01*
X83729Y-48800D01*
G37*
G36*
X83733Y-49000D02*
X83607Y-48997D01*
X83534Y-48986D01*
X83504Y-48965D01*
X83500Y-48950D01*
X83514Y-48922D01*
X83563Y-48907D01*
X83660Y-48900D01*
X83733Y-48900D01*
X83860Y-48902D01*
X83933Y-48913D01*
X83963Y-48934D01*
X83967Y-48950D01*
X83953Y-48977D01*
X83904Y-48992D01*
X83807Y-48999D01*
X83733Y-49000D01*
X83733Y-49000D01*
X83733Y-49000D01*
G37*
G36*
X83932Y-49400D02*
X83892Y-49373D01*
X83879Y-49350D01*
X83830Y-49312D01*
X83733Y-49300D01*
X83635Y-49294D01*
X83560Y-49282D01*
X83553Y-49279D01*
X83515Y-49238D01*
X83500Y-49171D01*
X83508Y-49105D01*
X83539Y-49068D01*
X83550Y-49066D01*
X83591Y-49094D01*
X83600Y-49133D01*
X83612Y-49177D01*
X83658Y-49196D01*
X83730Y-49200D01*
X83820Y-49191D01*
X83865Y-49161D01*
X83876Y-49133D01*
X83906Y-49079D01*
X83930Y-49066D01*
X83960Y-49094D01*
X83967Y-49133D01*
X83988Y-49187D01*
X84017Y-49200D01*
X84061Y-49226D01*
X84067Y-49250D01*
X84040Y-49294D01*
X84017Y-49300D01*
X83973Y-49326D01*
X83967Y-49350D01*
X83948Y-49394D01*
X83932Y-49400D01*
X83932Y-49400D01*
X83932Y-49400D01*
G37*
G36*
X83833Y-49533D02*
X83678Y-49531D01*
X83578Y-49525D01*
X83523Y-49513D01*
X83502Y-49493D01*
X83500Y-49483D01*
X83511Y-49460D01*
X83552Y-49445D01*
X83632Y-49436D01*
X83764Y-49433D01*
X83833Y-49433D01*
X83989Y-49434D01*
X84089Y-49441D01*
X84144Y-49453D01*
X84165Y-49472D01*
X84167Y-49483D01*
X84156Y-49506D01*
X84115Y-49521D01*
X84035Y-49529D01*
X83903Y-49533D01*
X83833Y-49533D01*
X83833Y-49533D01*
X83833Y-49533D01*
G37*
G36*
X83789Y-50000D02*
X83662Y-49991D01*
X83583Y-49962D01*
X83555Y-49939D01*
X83507Y-49844D01*
X83510Y-49739D01*
X83561Y-49655D01*
X83652Y-49613D01*
X83794Y-49600D01*
X83897Y-49603D01*
X83948Y-49617D01*
X83966Y-49648D01*
X83967Y-49666D01*
X83959Y-49705D01*
X83924Y-49725D01*
X83848Y-49732D01*
X83783Y-49733D01*
X83678Y-49736D01*
X83622Y-49748D01*
X83602Y-49776D01*
X83600Y-49800D01*
X83608Y-49838D01*
X83643Y-49858D01*
X83719Y-49865D01*
X83783Y-49866D01*
X83889Y-49869D01*
X83945Y-49882D01*
X83965Y-49909D01*
X83967Y-49933D01*
X83959Y-49972D01*
X83923Y-49992D01*
X83845Y-49999D01*
X83789Y-50000D01*
X83789Y-50000D01*
X83789Y-50000D01*
G37*
G36*
X83550Y-50366D02*
X83510Y-50340D01*
X83497Y-50275D01*
X83507Y-50194D01*
X83540Y-50120D01*
X83574Y-50085D01*
X83638Y-50052D01*
X83693Y-50065D01*
X83715Y-50079D01*
X83774Y-50143D01*
X83794Y-50197D01*
X83817Y-50251D01*
X83849Y-50252D01*
X83873Y-50208D01*
X83877Y-50154D01*
X83890Y-50085D01*
X83926Y-50067D01*
X83967Y-50101D01*
X83986Y-50146D01*
X83988Y-50249D01*
X83946Y-50323D01*
X83878Y-50359D01*
X83800Y-50352D01*
X83729Y-50296D01*
X83707Y-50258D01*
X83660Y-50184D01*
X83623Y-50173D01*
X83602Y-50225D01*
X83600Y-50266D01*
X83585Y-50346D01*
X83550Y-50366D01*
X83550Y-50366D01*
X83550Y-50366D01*
G37*
G36*
X83883Y-50830D02*
X83774Y-50827D01*
X83746Y-50826D01*
X83619Y-50817D01*
X83547Y-50802D01*
X83519Y-50778D01*
X83517Y-50766D01*
X83538Y-50733D01*
X83610Y-50711D01*
X83700Y-50700D01*
X83814Y-50683D01*
X83875Y-50658D01*
X83894Y-50626D01*
X83889Y-50593D01*
X83850Y-50574D01*
X83764Y-50563D01*
X83713Y-50560D01*
X83585Y-50544D01*
X83515Y-50515D01*
X83507Y-50475D01*
X83522Y-50456D01*
X83566Y-50443D01*
X83653Y-50435D01*
X83722Y-50433D01*
X83831Y-50438D01*
X83897Y-50457D01*
X83941Y-50499D01*
X83952Y-50514D01*
X83986Y-50599D01*
X83974Y-50652D01*
X83955Y-50732D01*
X83959Y-50773D01*
X83962Y-50806D01*
X83941Y-50824D01*
X83883Y-50830D01*
X83883Y-50830D01*
X83883Y-50830D01*
G37*
G36*
X83742Y-51333D02*
X83617Y-51307D01*
X83534Y-51236D01*
X83518Y-51183D01*
X83750Y-51183D01*
X83837Y-51177D01*
X83876Y-51155D01*
X83883Y-51116D01*
X83872Y-51073D01*
X83825Y-51050D01*
X83739Y-51039D01*
X83650Y-51036D01*
X83610Y-51048D01*
X83603Y-51085D01*
X83606Y-51106D01*
X83623Y-51156D01*
X83668Y-51178D01*
X83750Y-51183D01*
X83518Y-51183D01*
X83500Y-51127D01*
X83500Y-51116D01*
X83522Y-51010D01*
X83574Y-50951D01*
X83695Y-50904D01*
X83819Y-50917D01*
X83918Y-50981D01*
X83974Y-51052D01*
X84000Y-51112D01*
X84000Y-51116D01*
X83972Y-51190D01*
X83902Y-51264D01*
X83813Y-51317D01*
X83742Y-51333D01*
X83742Y-51333D01*
X83742Y-51333D01*
G37*
G36*
X83817Y-51833D02*
X83668Y-51808D01*
X83564Y-51737D01*
X83508Y-51621D01*
X83500Y-51540D01*
X83505Y-51451D01*
X83518Y-51394D01*
X83522Y-51388D01*
X83573Y-51368D01*
X83591Y-51366D01*
X83620Y-51384D01*
X83621Y-51448D01*
X83615Y-51480D01*
X83620Y-51597D01*
X83675Y-51681D01*
X83768Y-51722D01*
X83845Y-51719D01*
X83958Y-51674D01*
X84015Y-51591D01*
X84017Y-51472D01*
X84008Y-51397D01*
X84024Y-51370D01*
X84056Y-51372D01*
X84099Y-51400D01*
X84122Y-51474D01*
X84127Y-51524D01*
X84112Y-51665D01*
X84045Y-51765D01*
X83929Y-51821D01*
X83817Y-51833D01*
X83817Y-51833D01*
X83817Y-51833D01*
G37*
G36*
X84069Y-42050D02*
X84020Y-42026D01*
X84008Y-41979D01*
X84022Y-41956D01*
X84075Y-41932D01*
X84119Y-41950D01*
X84127Y-41991D01*
X84095Y-42041D01*
X84069Y-42050D01*
X84069Y-42050D01*
X84069Y-42050D01*
G37*
G36*
X84067Y-49000D02*
X84013Y-48979D01*
X84000Y-48950D01*
X84028Y-48909D01*
X84067Y-48900D01*
X84121Y-48920D01*
X84133Y-48950D01*
X84106Y-48990D01*
X84067Y-49000D01*
X84067Y-49000D01*
X84067Y-49000D01*
G37*
G36*
X84367Y-51900D02*
X84367Y-51366D01*
X84800Y-51366D01*
X85625Y-51366D01*
X86450Y-51366D01*
X86441Y-49283D01*
X86433Y-47200D01*
X85766Y-47200D01*
X85100Y-47200D01*
X85100Y-47116D01*
X85102Y-47077D01*
X85117Y-47053D01*
X85158Y-47040D01*
X85236Y-47034D01*
X85364Y-47033D01*
X85415Y-47033D01*
X85564Y-47032D01*
X85661Y-47026D01*
X85721Y-47012D01*
X85758Y-46988D01*
X85782Y-46959D01*
X85827Y-46858D01*
X85823Y-46766D01*
X85773Y-46703D01*
X85769Y-46701D01*
X85708Y-46685D01*
X85599Y-46673D01*
X85463Y-46667D01*
X85400Y-46666D01*
X85096Y-46666D01*
X85106Y-46575D01*
X85117Y-46483D01*
X85452Y-46483D01*
X85621Y-46486D01*
X85738Y-46495D01*
X85819Y-46514D01*
X85876Y-46542D01*
X85964Y-46635D01*
X85996Y-46764D01*
X85977Y-46903D01*
X85944Y-47028D01*
X86189Y-47039D01*
X86434Y-47050D01*
X86434Y-44825D01*
X86433Y-42600D01*
X85767Y-42600D01*
X85100Y-42600D01*
X85100Y-42515D01*
X85100Y-42430D01*
X85766Y-42440D01*
X86431Y-42450D01*
X86441Y-41791D01*
X86450Y-41133D01*
X85542Y-41133D01*
X84633Y-41133D01*
X84633Y-45283D01*
X84633Y-49433D01*
X84717Y-49433D01*
X84800Y-49433D01*
X84800Y-50400D01*
X84800Y-51366D01*
X84367Y-51366D01*
X84367Y-50666D01*
X84367Y-49433D01*
X84450Y-49433D01*
X84533Y-49433D01*
X84533Y-45283D01*
X84533Y-41133D01*
X84400Y-41133D01*
X84306Y-41123D01*
X84270Y-41095D01*
X84270Y-41091D01*
X84288Y-41048D01*
X84296Y-41033D01*
X84816Y-41033D01*
X84950Y-41033D01*
X85500Y-41033D01*
X85645Y-41033D01*
X86189Y-41033D01*
X86371Y-41032D01*
X86527Y-41030D01*
X86647Y-41026D01*
X86718Y-41022D01*
X86733Y-41019D01*
X86718Y-40988D01*
X86673Y-40907D01*
X86604Y-40786D01*
X86516Y-40632D01*
X86414Y-40454D01*
X86303Y-40260D01*
X86186Y-40059D01*
X86070Y-39858D01*
X85959Y-39666D01*
X85857Y-39491D01*
X85770Y-39342D01*
X85703Y-39228D01*
X85659Y-39155D01*
X85645Y-39134D01*
X85637Y-39154D01*
X85633Y-39228D01*
X85633Y-39341D01*
X85636Y-39479D01*
X85642Y-39630D01*
X85651Y-39780D01*
X85661Y-39915D01*
X85673Y-40021D01*
X85674Y-40032D01*
X85703Y-40173D01*
X85742Y-40265D01*
X85787Y-40316D01*
X85843Y-40375D01*
X85867Y-40421D01*
X85867Y-40422D01*
X85896Y-40454D01*
X85958Y-40476D01*
X86053Y-40496D01*
X86117Y-40511D01*
X86202Y-40525D01*
X86275Y-40530D01*
X86342Y-40542D01*
X86367Y-40563D01*
X86336Y-40579D01*
X86254Y-40597D01*
X86136Y-40612D01*
X86083Y-40617D01*
X85956Y-40631D01*
X85858Y-40648D01*
X85805Y-40665D01*
X85800Y-40672D01*
X85779Y-40716D01*
X85737Y-40770D01*
X85684Y-40855D01*
X85659Y-40935D01*
X85645Y-41033D01*
X85500Y-41033D01*
X85500Y-40919D01*
X85485Y-40824D01*
X85450Y-40754D01*
X85448Y-40752D01*
X85417Y-40711D01*
X85423Y-40697D01*
X85444Y-40689D01*
X85412Y-40674D01*
X85341Y-40656D01*
X85243Y-40637D01*
X85132Y-40621D01*
X85025Y-40610D01*
X84894Y-40595D01*
X84799Y-40577D01*
X84746Y-40558D01*
X84743Y-40541D01*
X84796Y-40529D01*
X84823Y-40527D01*
X84964Y-40514D01*
X85042Y-40499D01*
X85145Y-40475D01*
X85199Y-40470D01*
X85283Y-40437D01*
X85372Y-40358D01*
X85448Y-40253D01*
X85495Y-40140D01*
X85496Y-40134D01*
X85508Y-40050D01*
X85518Y-39917D01*
X85526Y-39751D01*
X85531Y-39571D01*
X85531Y-39541D01*
X85535Y-39083D01*
X85246Y-39583D01*
X85122Y-39796D01*
X84982Y-40036D01*
X84842Y-40277D01*
X84715Y-40493D01*
X84681Y-40550D01*
X84589Y-40707D01*
X84509Y-40842D01*
X84448Y-40947D01*
X84411Y-41010D01*
X84403Y-41025D01*
X84434Y-41027D01*
X84520Y-41030D01*
X84651Y-41031D01*
X84816Y-41033D01*
X84296Y-41033D01*
X84333Y-40960D01*
X84400Y-40840D01*
X84481Y-40700D01*
X84491Y-40683D01*
X84571Y-40546D01*
X84677Y-40365D01*
X84800Y-40154D01*
X84931Y-39927D01*
X85063Y-39698D01*
X85124Y-39591D01*
X85240Y-39393D01*
X85346Y-39215D01*
X85438Y-39066D01*
X85511Y-38953D01*
X85560Y-38885D01*
X85579Y-38867D01*
X85601Y-38894D01*
X85652Y-38972D01*
X85728Y-39093D01*
X85823Y-39249D01*
X85933Y-39432D01*
X86054Y-39635D01*
X86181Y-39850D01*
X86309Y-40069D01*
X86435Y-40286D01*
X86554Y-40491D01*
X86661Y-40679D01*
X86752Y-40840D01*
X86823Y-40968D01*
X86868Y-41054D01*
X86883Y-41092D01*
X86853Y-41107D01*
X86776Y-41120D01*
X86708Y-41126D01*
X86533Y-41136D01*
X86533Y-46251D01*
X86533Y-51366D01*
X87233Y-51366D01*
X87933Y-51366D01*
X87933Y-51633D01*
X87933Y-51900D01*
X86150Y-51900D01*
X84367Y-51900D01*
X84367Y-51900D01*
X84367Y-51900D01*
G37*
G36*
X86700Y-46833D02*
X86700Y-46750D01*
X86702Y-46711D01*
X86718Y-46686D01*
X86758Y-46673D01*
X86837Y-46667D01*
X86966Y-46666D01*
X87012Y-46666D01*
X87189Y-46661D01*
X87310Y-46641D01*
X87385Y-46603D01*
X87423Y-46539D01*
X87433Y-46446D01*
X87433Y-46442D01*
X87428Y-46383D01*
X87406Y-46343D01*
X87356Y-46318D01*
X87267Y-46305D01*
X87129Y-46300D01*
X87014Y-46300D01*
X86868Y-46299D01*
X86776Y-46295D01*
X86726Y-46284D01*
X86705Y-46263D01*
X86700Y-46230D01*
X86700Y-46222D01*
X86709Y-46152D01*
X86722Y-46122D01*
X86772Y-46106D01*
X86870Y-46098D01*
X86998Y-46097D01*
X87139Y-46102D01*
X87275Y-46113D01*
X87389Y-46128D01*
X87462Y-46147D01*
X87466Y-46149D01*
X87563Y-46233D01*
X87610Y-46352D01*
X87605Y-46491D01*
X87584Y-46554D01*
X87554Y-46647D01*
X87561Y-46691D01*
X87565Y-46693D01*
X87594Y-46732D01*
X87600Y-46769D01*
X87596Y-46795D01*
X87577Y-46812D01*
X87531Y-46824D01*
X87450Y-46830D01*
X87323Y-46832D01*
X87150Y-46833D01*
X86700Y-46833D01*
X86700Y-46833D01*
X86700Y-46833D01*
G37*
G36*
X86984Y-47766D02*
X86860Y-47737D01*
X86765Y-47660D01*
X86708Y-47550D01*
X86983Y-47550D01*
X87045Y-47545D01*
X87074Y-47520D01*
X87083Y-47456D01*
X87083Y-47400D01*
X87078Y-47303D01*
X87056Y-47255D01*
X87019Y-47238D01*
X86947Y-47253D01*
X86894Y-47318D01*
X86872Y-47416D01*
X86874Y-47450D01*
X86890Y-47521D01*
X86935Y-47547D01*
X86983Y-47550D01*
X86708Y-47550D01*
X86696Y-47422D01*
X86734Y-47299D01*
X86749Y-47236D01*
X86734Y-47216D01*
X86706Y-47169D01*
X86700Y-47131D01*
X86705Y-47103D01*
X86726Y-47084D01*
X86776Y-47073D01*
X86866Y-47068D01*
X87007Y-47066D01*
X87068Y-47066D01*
X87231Y-47067D01*
X87340Y-47071D01*
X87412Y-47082D01*
X87460Y-47101D01*
X87497Y-47132D01*
X87514Y-47150D01*
X87595Y-47285D01*
X87618Y-47446D01*
X87599Y-47571D01*
X87567Y-47658D01*
X87524Y-47695D01*
X87488Y-47700D01*
X87445Y-47695D01*
X87424Y-47671D01*
X87420Y-47611D01*
X87427Y-47511D01*
X87432Y-47396D01*
X87422Y-47328D01*
X87392Y-47286D01*
X87382Y-47277D01*
X87321Y-47241D01*
X87286Y-47248D01*
X87270Y-47306D01*
X87267Y-47411D01*
X87245Y-47575D01*
X87181Y-47690D01*
X87076Y-47753D01*
X86984Y-47766D01*
X86984Y-47766D01*
X86984Y-47766D01*
G37*
G36*
X86700Y-49200D02*
X86700Y-49116D01*
X86702Y-49077D01*
X86718Y-49053D01*
X86758Y-49040D01*
X86837Y-49034D01*
X86966Y-49033D01*
X87012Y-49033D01*
X87189Y-49027D01*
X87310Y-49008D01*
X87385Y-48969D01*
X87423Y-48906D01*
X87433Y-48813D01*
X87434Y-48809D01*
X87428Y-48750D01*
X87406Y-48710D01*
X87356Y-48685D01*
X87268Y-48672D01*
X87130Y-48667D01*
X87012Y-48666D01*
X86696Y-48666D01*
X86706Y-48575D01*
X86717Y-48483D01*
X87041Y-48473D01*
X87214Y-48464D01*
X87329Y-48445D01*
X87397Y-48409D01*
X87427Y-48351D01*
X87430Y-48266D01*
X87427Y-48240D01*
X87417Y-48150D01*
X87067Y-48133D01*
X86717Y-48116D01*
X86706Y-48025D01*
X86696Y-47933D01*
X87057Y-47933D01*
X87248Y-47936D01*
X87385Y-47950D01*
X87478Y-47979D01*
X87540Y-48027D01*
X87582Y-48099D01*
X87599Y-48145D01*
X87615Y-48283D01*
X87572Y-48405D01*
X87519Y-48464D01*
X87485Y-48502D01*
X87495Y-48539D01*
X87529Y-48580D01*
X87605Y-48697D01*
X87616Y-48816D01*
X87585Y-48906D01*
X87553Y-48998D01*
X87566Y-49046D01*
X87596Y-49106D01*
X87600Y-49140D01*
X87595Y-49164D01*
X87572Y-49180D01*
X87522Y-49191D01*
X87434Y-49197D01*
X87298Y-49199D01*
X87150Y-49200D01*
X86700Y-49200D01*
X86700Y-49200D01*
X86700Y-49200D01*
G37*
G36*
X87122Y-50133D02*
X87006Y-50129D01*
X86929Y-50110D01*
X86864Y-50067D01*
X86813Y-50020D01*
X86749Y-49948D01*
X86715Y-49884D01*
X86703Y-49800D01*
X86703Y-49711D01*
X86707Y-49598D01*
X86715Y-49510D01*
X86722Y-49475D01*
X86765Y-49441D01*
X86813Y-49433D01*
X86855Y-49438D01*
X86875Y-49463D01*
X86880Y-49523D01*
X86874Y-49628D01*
X86868Y-49740D01*
X86877Y-49809D01*
X86907Y-49856D01*
X86951Y-49894D01*
X87020Y-49943D01*
X87068Y-49966D01*
X87071Y-49966D01*
X87084Y-49935D01*
X87085Y-49933D01*
X87310Y-49933D01*
X87382Y-49903D01*
X87425Y-49823D01*
X87433Y-49748D01*
X87417Y-49661D01*
X87359Y-49610D01*
X87350Y-49606D01*
X87267Y-49568D01*
X87267Y-49750D01*
X87273Y-49867D01*
X87292Y-49924D01*
X87310Y-49933D01*
X87085Y-49933D01*
X87094Y-49853D01*
X87100Y-49735D01*
X87100Y-49683D01*
X87100Y-49400D01*
X87246Y-49400D01*
X87397Y-49427D01*
X87515Y-49502D01*
X87591Y-49611D01*
X87616Y-49744D01*
X87587Y-49879D01*
X87499Y-50010D01*
X87364Y-50094D01*
X87181Y-50131D01*
X87122Y-50133D01*
X87122Y-50133D01*
X87122Y-50133D01*
G37*
G36*
X87164Y-51032D02*
X87012Y-51017D01*
X86877Y-50964D01*
X86774Y-50872D01*
X86751Y-50834D01*
X86724Y-50745D01*
X86707Y-50620D01*
X86703Y-50488D01*
X86712Y-50378D01*
X86722Y-50341D01*
X86765Y-50309D01*
X86817Y-50300D01*
X86861Y-50304D01*
X86882Y-50327D01*
X86885Y-50387D01*
X86877Y-50482D01*
X86878Y-50647D01*
X86922Y-50766D01*
X87007Y-50834D01*
X87031Y-50842D01*
X87064Y-50847D01*
X87083Y-50833D01*
X87298Y-50833D01*
X87365Y-50804D01*
X87410Y-50734D01*
X87429Y-50645D01*
X87418Y-50560D01*
X87370Y-50501D01*
X87369Y-50501D01*
X87313Y-50475D01*
X87282Y-50480D01*
X87270Y-50528D01*
X87267Y-50629D01*
X87267Y-50650D01*
X87272Y-50750D01*
X87285Y-50816D01*
X87298Y-50833D01*
X87083Y-50833D01*
X87084Y-50832D01*
X87095Y-50786D01*
X87099Y-50697D01*
X87100Y-50563D01*
X87101Y-50422D01*
X87105Y-50335D01*
X87117Y-50288D01*
X87140Y-50270D01*
X87178Y-50266D01*
X87185Y-50266D01*
X87316Y-50290D01*
X87451Y-50352D01*
X87546Y-50428D01*
X87595Y-50526D01*
X87607Y-50653D01*
X87583Y-50779D01*
X87553Y-50841D01*
X87451Y-50944D01*
X87316Y-51007D01*
X87164Y-51032D01*
X87164Y-51032D01*
X87164Y-51032D01*
G37*
G36*
X85992Y-46400D02*
X85958Y-46388D01*
X85874Y-46355D01*
X85752Y-46307D01*
X85603Y-46248D01*
X85565Y-46232D01*
X85151Y-46065D01*
X84957Y-46149D01*
X84832Y-46201D01*
X84756Y-46225D01*
X84717Y-46221D01*
X84702Y-46190D01*
X84700Y-46150D01*
X84716Y-46086D01*
X84775Y-46038D01*
X84825Y-46014D01*
X85036Y-45925D01*
X85245Y-45837D01*
X85443Y-45755D01*
X85620Y-45683D01*
X85766Y-45624D01*
X85872Y-45582D01*
X85929Y-45562D01*
X85933Y-45560D01*
X85974Y-45576D01*
X85993Y-45629D01*
X85984Y-45690D01*
X85960Y-45722D01*
X85908Y-45751D01*
X85814Y-45793D01*
X85717Y-45833D01*
X85565Y-45892D01*
X85474Y-45934D01*
X85443Y-45967D01*
X85470Y-46000D01*
X85555Y-46041D01*
X85687Y-46095D01*
X85826Y-46154D01*
X85915Y-46198D01*
X85965Y-46236D01*
X85988Y-46276D01*
X85994Y-46308D01*
X85998Y-46374D01*
X85992Y-46400D01*
X85992Y-46400D01*
X85992Y-46400D01*
G37*
G36*
X85627Y-48195D02*
X85425Y-48193D01*
X85343Y-48192D01*
X84717Y-48183D01*
X84706Y-48091D01*
X84696Y-48000D01*
X84938Y-48000D01*
X85556Y-48000D01*
X85676Y-47996D01*
X85748Y-47982D01*
X85788Y-47953D01*
X85799Y-47935D01*
X85835Y-47815D01*
X85812Y-47714D01*
X85734Y-47641D01*
X85610Y-47603D01*
X85550Y-47600D01*
X85405Y-47620D01*
X85311Y-47681D01*
X85269Y-47780D01*
X85267Y-47811D01*
X85278Y-47899D01*
X85307Y-47959D01*
X85307Y-47960D01*
X85361Y-47981D01*
X85460Y-47996D01*
X85556Y-48000D01*
X84938Y-48000D01*
X85063Y-47997D01*
X85131Y-47989D01*
X85149Y-47973D01*
X85140Y-47960D01*
X85109Y-47889D01*
X85102Y-47784D01*
X85118Y-47672D01*
X85156Y-47578D01*
X85157Y-47577D01*
X85257Y-47481D01*
X85393Y-47423D01*
X85548Y-47403D01*
X85705Y-47421D01*
X85843Y-47476D01*
X85946Y-47570D01*
X85989Y-47679D01*
X85997Y-47811D01*
X85969Y-47929D01*
X85965Y-47937D01*
X85947Y-48009D01*
X85968Y-48051D01*
X85992Y-48117D01*
X85988Y-48150D01*
X85973Y-48168D01*
X85938Y-48181D01*
X85875Y-48189D01*
X85774Y-48194D01*
X85627Y-48195D01*
X85627Y-48195D01*
X85627Y-48195D01*
G37*
G36*
X85413Y-43552D02*
X85299Y-43546D01*
X85186Y-43484D01*
X85166Y-43465D01*
X85120Y-43381D01*
X85115Y-43350D01*
X85367Y-43350D01*
X85418Y-43343D01*
X85444Y-43312D01*
X85457Y-43238D01*
X85460Y-43191D01*
X85463Y-43095D01*
X85451Y-43048D01*
X85419Y-43033D01*
X85404Y-43033D01*
X85329Y-43062D01*
X85284Y-43142D01*
X85275Y-43250D01*
X85292Y-43322D01*
X85335Y-43348D01*
X85367Y-43350D01*
X85115Y-43350D01*
X85100Y-43263D01*
X85108Y-43141D01*
X85135Y-43064D01*
X85152Y-43011D01*
X85135Y-43000D01*
X85108Y-42973D01*
X85101Y-42916D01*
X85117Y-42862D01*
X85122Y-42855D01*
X85163Y-42846D01*
X85255Y-42838D01*
X85383Y-42834D01*
X85475Y-42833D01*
X85627Y-42834D01*
X85728Y-42839D01*
X85795Y-42852D01*
X85843Y-42877D01*
X85889Y-42917D01*
X85903Y-42930D01*
X85964Y-43003D01*
X85992Y-43079D01*
X86000Y-43189D01*
X86000Y-43199D01*
X85987Y-43358D01*
X85948Y-43458D01*
X85882Y-43498D01*
X85865Y-43500D01*
X85826Y-43493D01*
X85810Y-43462D01*
X85813Y-43390D01*
X85819Y-43338D01*
X85823Y-43194D01*
X85794Y-43091D01*
X85735Y-43038D01*
X85702Y-43033D01*
X85663Y-43043D01*
X85650Y-43084D01*
X85657Y-43161D01*
X85652Y-43306D01*
X85601Y-43425D01*
X85518Y-43509D01*
X85413Y-43552D01*
X85413Y-43552D01*
X85413Y-43552D01*
G37*
G36*
X85594Y-44325D02*
X85406Y-44317D01*
X85262Y-44260D01*
X85161Y-44153D01*
X85151Y-44134D01*
X85120Y-44036D01*
X85104Y-43909D01*
X85106Y-43785D01*
X85122Y-43708D01*
X85165Y-43676D01*
X85219Y-43666D01*
X85268Y-43671D01*
X85287Y-43699D01*
X85285Y-43767D01*
X85279Y-43811D01*
X85275Y-43927D01*
X85293Y-44018D01*
X85297Y-44027D01*
X85368Y-44095D01*
X85475Y-44132D01*
X85597Y-44135D01*
X85711Y-44105D01*
X85794Y-44041D01*
X85823Y-43957D01*
X85818Y-43825D01*
X85808Y-43729D01*
X85815Y-43683D01*
X85846Y-43667D01*
X85878Y-43666D01*
X85941Y-43684D01*
X85979Y-43744D01*
X85997Y-43855D01*
X86000Y-43942D01*
X85985Y-44044D01*
X85933Y-44137D01*
X85889Y-44188D01*
X85812Y-44263D01*
X85737Y-44302D01*
X85633Y-44321D01*
X85594Y-44325D01*
X85594Y-44325D01*
X85594Y-44325D01*
G37*
G36*
X85100Y-44701D02*
X85100Y-44616D01*
X85115Y-44546D01*
X85144Y-44514D01*
X85193Y-44508D01*
X85293Y-44505D01*
X85431Y-44504D01*
X85585Y-44507D01*
X85983Y-44516D01*
X85983Y-44600D01*
X85983Y-44683D01*
X85542Y-44692D01*
X85100Y-44701D01*
X85100Y-44701D01*
X85100Y-44701D01*
G37*
G36*
X85218Y-45466D02*
X85158Y-45453D01*
X85121Y-45405D01*
X85104Y-45312D01*
X85100Y-45199D01*
X85112Y-45071D01*
X85154Y-44977D01*
X85178Y-44946D01*
X85278Y-44874D01*
X85394Y-44856D01*
X85506Y-44895D01*
X85534Y-44917D01*
X85585Y-44988D01*
X85629Y-45090D01*
X85639Y-45124D01*
X85668Y-45215D01*
X85700Y-45255D01*
X85746Y-45260D01*
X85786Y-45247D01*
X85806Y-45213D01*
X85812Y-45141D01*
X85810Y-45058D01*
X85809Y-44949D01*
X85818Y-44891D01*
X85843Y-44869D01*
X85867Y-44866D01*
X85939Y-44897D01*
X85983Y-44986D01*
X86000Y-45132D01*
X86000Y-45149D01*
X85976Y-45291D01*
X85908Y-45398D01*
X85807Y-45457D01*
X85741Y-45466D01*
X85630Y-45446D01*
X85551Y-45378D01*
X85494Y-45254D01*
X85487Y-45234D01*
X85436Y-45106D01*
X85380Y-45042D01*
X85330Y-45038D01*
X85292Y-45094D01*
X85276Y-45205D01*
X85279Y-45291D01*
X85287Y-45393D01*
X85280Y-45445D01*
X85254Y-45464D01*
X85218Y-45466D01*
X85218Y-45466D01*
X85218Y-45466D01*
G37*
G36*
X85633Y-49186D02*
X85470Y-49185D01*
X85314Y-49129D01*
X85211Y-49050D01*
X85161Y-48993D01*
X85482Y-48993D01*
X85599Y-48989D01*
X85707Y-48952D01*
X85791Y-48886D01*
X85832Y-48794D01*
X85833Y-48769D01*
X85805Y-48662D01*
X85723Y-48590D01*
X85593Y-48557D01*
X85550Y-48555D01*
X85410Y-48574D01*
X85334Y-48616D01*
X85283Y-48698D01*
X85268Y-48801D01*
X85292Y-48886D01*
X85374Y-48960D01*
X85482Y-48993D01*
X85161Y-48993D01*
X85143Y-48973D01*
X85110Y-48899D01*
X85100Y-48798D01*
X85100Y-48767D01*
X85107Y-48652D01*
X85133Y-48575D01*
X85191Y-48504D01*
X85194Y-48500D01*
X85338Y-48401D01*
X85503Y-48357D01*
X85673Y-48369D01*
X85833Y-48437D01*
X85888Y-48478D01*
X85945Y-48543D01*
X85977Y-48626D01*
X85992Y-48737D01*
X85997Y-48851D01*
X85983Y-48927D01*
X85943Y-48994D01*
X85918Y-49025D01*
X85788Y-49133D01*
X85633Y-49186D01*
X85633Y-49186D01*
X85633Y-49186D01*
G37*
G36*
X85548Y-50062D02*
X85490Y-50059D01*
X85370Y-50046D01*
X85291Y-50020D01*
X85227Y-49972D01*
X85195Y-49938D01*
X85142Y-49871D01*
X85113Y-49803D01*
X85102Y-49711D01*
X85100Y-49615D01*
X85103Y-49495D01*
X85113Y-49426D01*
X85137Y-49389D01*
X85175Y-49369D01*
X85242Y-49351D01*
X85277Y-49370D01*
X85286Y-49435D01*
X85277Y-49533D01*
X85279Y-49687D01*
X85324Y-49802D01*
X85409Y-49868D01*
X85431Y-49875D01*
X85464Y-49880D01*
X85484Y-49866D01*
X85695Y-49866D01*
X85749Y-49838D01*
X85799Y-49772D01*
X85827Y-49696D01*
X85828Y-49664D01*
X85793Y-49590D01*
X85742Y-49541D01*
X85699Y-49516D01*
X85677Y-49520D01*
X85668Y-49566D01*
X85667Y-49666D01*
X85667Y-49679D01*
X85671Y-49780D01*
X85683Y-49848D01*
X85695Y-49866D01*
X85484Y-49866D01*
X85495Y-49820D01*
X85499Y-49730D01*
X85500Y-49596D01*
X85502Y-49446D01*
X85512Y-49354D01*
X85539Y-49308D01*
X85593Y-49301D01*
X85683Y-49322D01*
X85740Y-49339D01*
X85878Y-49410D01*
X85967Y-49519D01*
X86001Y-49654D01*
X85977Y-49805D01*
X85950Y-49867D01*
X85859Y-49979D01*
X85727Y-50043D01*
X85548Y-50062D01*
X85548Y-50062D01*
X85548Y-50062D01*
G37*
G36*
X85761Y-51252D02*
X85564Y-51241D01*
X85384Y-51181D01*
X85247Y-51081D01*
X85155Y-50933D01*
X85109Y-50739D01*
X85104Y-50613D01*
X85108Y-50488D01*
X85115Y-50384D01*
X85123Y-50325D01*
X85139Y-50296D01*
X85178Y-50279D01*
X85253Y-50270D01*
X85377Y-50266D01*
X85436Y-50266D01*
X85733Y-50266D01*
X85733Y-50483D01*
X85732Y-50599D01*
X85724Y-50664D01*
X85703Y-50693D01*
X85664Y-50699D01*
X85650Y-50700D01*
X85596Y-50692D01*
X85573Y-50658D01*
X85567Y-50578D01*
X85567Y-50566D01*
X85567Y-50433D01*
X85417Y-50433D01*
X85267Y-50433D01*
X85267Y-50586D01*
X85290Y-50772D01*
X85360Y-50910D01*
X85477Y-51001D01*
X85639Y-51043D01*
X85727Y-51046D01*
X85891Y-51014D01*
X86021Y-50928D01*
X86111Y-50797D01*
X86154Y-50627D01*
X86155Y-50491D01*
X86148Y-50383D01*
X86153Y-50326D01*
X86175Y-50303D01*
X86216Y-50300D01*
X86276Y-50312D01*
X86312Y-50359D01*
X86329Y-50449D01*
X86333Y-50577D01*
X86303Y-50791D01*
X86223Y-50971D01*
X86099Y-51111D01*
X85943Y-51207D01*
X85761Y-51252D01*
X85761Y-51252D01*
X85761Y-51252D01*
G37*
G36*
X86233Y-44700D02*
X86163Y-44691D01*
X86137Y-44652D01*
X86133Y-44600D01*
X86142Y-44529D01*
X86181Y-44503D01*
X86233Y-44500D01*
X86304Y-44508D01*
X86330Y-44547D01*
X86333Y-44600D01*
X86325Y-44670D01*
X86286Y-44696D01*
X86233Y-44700D01*
X86233Y-44700D01*
X86233Y-44700D01*
G37*
M02*
