G04 (created by PCBNEW (2013-07-07 BZR 4022)-stable) date 2/6/2015 4:46:30 PM*
%MOIN*%
G04 Gerber Fmt 3.4, Leading zero omitted, Abs format*
%FSLAX34Y34*%
G01*
G70*
G90*
G04 APERTURE LIST*
%ADD10C,0.00590551*%
%ADD11C,0.06*%
%ADD12R,0.035X0.055*%
%ADD13R,0.015748X0.015748*%
%ADD14R,0.0512X0.059*%
%ADD15R,0.019685X0.023622*%
%ADD16R,0.023622X0.019685*%
%ADD17C,0.035*%
%ADD18C,0.025*%
%ADD19C,0.01*%
G04 APERTURE END LIST*
G54D10*
G54D11*
X84156Y-51928D03*
X85156Y-51928D03*
X86156Y-51928D03*
X87156Y-51928D03*
X88156Y-50928D03*
X87156Y-50928D03*
X85156Y-50928D03*
X86156Y-50928D03*
X83156Y-50928D03*
X84156Y-50928D03*
X88156Y-48928D03*
X89156Y-48928D03*
X85156Y-48928D03*
X84156Y-48928D03*
X86156Y-48928D03*
X87156Y-48928D03*
X83156Y-48928D03*
X82156Y-48928D03*
X82156Y-49928D03*
X83156Y-49928D03*
X87156Y-49928D03*
X86156Y-49928D03*
X84156Y-49928D03*
X85156Y-49928D03*
X88156Y-49928D03*
X89156Y-49928D03*
X88156Y-47928D03*
X89156Y-47928D03*
X85156Y-47928D03*
X84156Y-47928D03*
X86156Y-47928D03*
X87156Y-47928D03*
X83156Y-47928D03*
X82156Y-47928D03*
X87156Y-46928D03*
X86156Y-46928D03*
X84156Y-46928D03*
X85156Y-46928D03*
X88156Y-46928D03*
G54D12*
X85225Y-44600D03*
X85975Y-44600D03*
X85225Y-45550D03*
X85975Y-45550D03*
G54D13*
X85089Y-37563D03*
X85089Y-37957D03*
X85089Y-38351D03*
X86113Y-37563D03*
X86113Y-37957D03*
X86113Y-38351D03*
G54D14*
X85976Y-36382D03*
X85226Y-36382D03*
X85225Y-43400D03*
X85975Y-43400D03*
X85225Y-42400D03*
X85975Y-42400D03*
X87425Y-41400D03*
X88175Y-41400D03*
G54D15*
X88370Y-43590D03*
X88370Y-43000D03*
X88370Y-42409D03*
X87229Y-42409D03*
X87229Y-43000D03*
X87229Y-43590D03*
G54D16*
X87800Y-43590D03*
G54D11*
X82156Y-45428D03*
X82156Y-44428D03*
X82156Y-42428D03*
X82156Y-43428D03*
X84156Y-45428D03*
X82156Y-46928D03*
X83156Y-46928D03*
X89156Y-46928D03*
X83156Y-45428D03*
G54D17*
X86700Y-42400D03*
X88000Y-44500D03*
X88500Y-44500D03*
X88500Y-45000D03*
X88000Y-45000D03*
X84800Y-41200D03*
X83950Y-41200D03*
X84700Y-41750D03*
X83300Y-41800D03*
G54D18*
X85225Y-45550D02*
X85225Y-44600D01*
G54D19*
X84350Y-41050D02*
X84350Y-40950D01*
X84450Y-40850D02*
X84550Y-40850D01*
X84350Y-40950D02*
X84450Y-40850D01*
X85299Y-39050D02*
X85299Y-40650D01*
X85299Y-40650D02*
X85100Y-40850D01*
X85100Y-40850D02*
X84550Y-40850D01*
X84650Y-38650D02*
X84650Y-38700D01*
X84650Y-37850D02*
X84650Y-38650D01*
X85299Y-38850D02*
X85299Y-39050D01*
X85249Y-38800D02*
X85299Y-38850D01*
X84750Y-38800D02*
X85249Y-38800D01*
X84650Y-38700D02*
X84750Y-38800D01*
X84350Y-42200D02*
X84350Y-41050D01*
X84550Y-42400D02*
X84350Y-42200D01*
X84550Y-42400D02*
X85225Y-42400D01*
X85089Y-37957D02*
X84757Y-37957D01*
X84650Y-37850D02*
X84650Y-37700D01*
X84757Y-37957D02*
X84650Y-37850D01*
X85226Y-36382D02*
X85226Y-36823D01*
X85226Y-36823D02*
X85000Y-37050D01*
X85000Y-37050D02*
X84800Y-37050D01*
X84800Y-37050D02*
X84650Y-37200D01*
X84650Y-37200D02*
X84650Y-37700D01*
G54D18*
X85225Y-42400D02*
X85225Y-42125D01*
X85950Y-41400D02*
X87425Y-41400D01*
X85225Y-42125D02*
X85950Y-41400D01*
X84156Y-45428D02*
X84396Y-45428D01*
X84396Y-45428D02*
X85225Y-44600D01*
X85225Y-43400D02*
X85225Y-42400D01*
X85225Y-44600D02*
X85225Y-43400D01*
G54D19*
X87425Y-41400D02*
X87425Y-41825D01*
X87425Y-41825D02*
X87600Y-42000D01*
X87600Y-42000D02*
X88200Y-42000D01*
X88200Y-42000D02*
X88370Y-42170D01*
X88370Y-42170D02*
X88370Y-42409D01*
X88370Y-43000D02*
X88370Y-42409D01*
G54D18*
X82156Y-44428D02*
X82156Y-43428D01*
G54D19*
X82156Y-42428D02*
X82328Y-42428D01*
X85975Y-42400D02*
X86700Y-42400D01*
X88000Y-44500D02*
X88500Y-44500D01*
X88500Y-45000D02*
X88000Y-45000D01*
X85900Y-40175D02*
X85900Y-40650D01*
X86100Y-40850D02*
X86600Y-40850D01*
X85900Y-40650D02*
X86100Y-40850D01*
X88175Y-41400D02*
X88175Y-40975D01*
X86000Y-38800D02*
X85950Y-38800D01*
X85900Y-38850D02*
X85900Y-39050D01*
X85950Y-38800D02*
X85900Y-38850D01*
X86550Y-38600D02*
X86550Y-38750D01*
X86550Y-38600D02*
X86550Y-37850D01*
X86500Y-38800D02*
X86000Y-38800D01*
X86550Y-38750D02*
X86500Y-38800D01*
X85900Y-39050D02*
X85900Y-40175D01*
X88050Y-40850D02*
X86600Y-40850D01*
X88175Y-40975D02*
X88050Y-40850D01*
X85976Y-36382D02*
X85976Y-36826D01*
X86442Y-37957D02*
X86113Y-37957D01*
X86550Y-37850D02*
X86442Y-37957D01*
X86550Y-37200D02*
X86550Y-37850D01*
X86400Y-37050D02*
X86550Y-37200D01*
X86200Y-37050D02*
X86400Y-37050D01*
X85976Y-36826D02*
X86200Y-37050D01*
X87800Y-43590D02*
X87800Y-44300D01*
X88500Y-44500D02*
X88500Y-45000D01*
X87800Y-44300D02*
X88000Y-44500D01*
X85600Y-45000D02*
X85600Y-45175D01*
X85600Y-45000D02*
X85600Y-44200D01*
X85600Y-44200D02*
X85800Y-44000D01*
X85800Y-44000D02*
X86600Y-44000D01*
X86600Y-44000D02*
X86800Y-43800D01*
X86800Y-43800D02*
X86800Y-43200D01*
X86800Y-43200D02*
X87000Y-43000D01*
X87229Y-43000D02*
X87000Y-43000D01*
X85600Y-45175D02*
X85975Y-45550D01*
X83700Y-44850D02*
X83700Y-41450D01*
X83450Y-46400D02*
X83700Y-46150D01*
X83700Y-46150D02*
X83700Y-44850D01*
X83400Y-46400D02*
X83450Y-46400D01*
X85300Y-41200D02*
X85500Y-41000D01*
X84800Y-41200D02*
X85300Y-41200D01*
X83700Y-41450D02*
X83950Y-41200D01*
X85451Y-38351D02*
X85089Y-38351D01*
X85500Y-39050D02*
X85500Y-41000D01*
X85451Y-38351D02*
X85500Y-38400D01*
X85500Y-38400D02*
X85500Y-39050D01*
X83156Y-46928D02*
X83156Y-46643D01*
X85975Y-46225D02*
X85975Y-45800D01*
X85800Y-46400D02*
X85975Y-46225D01*
X83400Y-46400D02*
X85800Y-46400D01*
X83156Y-46643D02*
X83400Y-46400D01*
X82156Y-46928D02*
X82156Y-46443D01*
X85700Y-39050D02*
X85700Y-40800D01*
X85748Y-38351D02*
X85700Y-38400D01*
X85700Y-38400D02*
X85700Y-39050D01*
X85748Y-38351D02*
X86113Y-38351D01*
X84700Y-41750D02*
X84850Y-41600D01*
X84850Y-41600D02*
X85250Y-41600D01*
X85250Y-41600D02*
X85700Y-41149D01*
X85700Y-41149D02*
X85700Y-40800D01*
X83300Y-44700D02*
X83300Y-41800D01*
X83200Y-44800D02*
X83300Y-44700D01*
X82900Y-44800D02*
X83200Y-44800D01*
X82700Y-45000D02*
X82900Y-44800D01*
X82700Y-45900D02*
X82700Y-45000D01*
X82156Y-46443D02*
X82700Y-45900D01*
X82156Y-46928D02*
X82156Y-47256D01*
X86650Y-44750D02*
X86800Y-44600D01*
X86650Y-47300D02*
X86650Y-44750D01*
X86500Y-47450D02*
X86650Y-47300D01*
X82350Y-47450D02*
X86500Y-47450D01*
X82156Y-47256D02*
X82350Y-47450D01*
X85975Y-44600D02*
X86800Y-44600D01*
X87229Y-44170D02*
X87229Y-43590D01*
X86800Y-44600D02*
X87229Y-44170D01*
G54D10*
G36*
X82232Y-45434D02*
X82161Y-45504D01*
X82156Y-45499D01*
X82150Y-45504D01*
X82079Y-45434D01*
X82085Y-45428D01*
X82079Y-45422D01*
X82150Y-45352D01*
X82156Y-45357D01*
X82161Y-45352D01*
X82232Y-45422D01*
X82226Y-45428D01*
X82232Y-45434D01*
X82232Y-45434D01*
G37*
G54D19*
X82232Y-45434D02*
X82161Y-45504D01*
X82156Y-45499D01*
X82150Y-45504D01*
X82079Y-45434D01*
X82085Y-45428D01*
X82079Y-45422D01*
X82150Y-45352D01*
X82156Y-45357D01*
X82161Y-45352D01*
X82232Y-45422D01*
X82226Y-45428D01*
X82232Y-45434D01*
G54D10*
G36*
X83552Y-41050D02*
X83525Y-41115D01*
X83524Y-41200D01*
X83487Y-41237D01*
X83422Y-41335D01*
X83412Y-41386D01*
X83384Y-41375D01*
X83215Y-41374D01*
X83059Y-41439D01*
X82939Y-41558D01*
X82875Y-41715D01*
X82874Y-41884D01*
X82939Y-42040D01*
X83000Y-42101D01*
X83000Y-44500D01*
X82900Y-44500D01*
X82785Y-44522D01*
X82710Y-44572D01*
X82710Y-42510D01*
X82699Y-42291D01*
X82637Y-42140D01*
X82541Y-42113D01*
X82226Y-42428D01*
X82541Y-42743D01*
X82637Y-42716D01*
X82710Y-42510D01*
X82710Y-44572D01*
X82687Y-44587D01*
X82683Y-44592D01*
X82705Y-44538D01*
X82706Y-44319D01*
X82622Y-44117D01*
X82531Y-44025D01*
X82531Y-43831D01*
X82622Y-43740D01*
X82705Y-43538D01*
X82706Y-43319D01*
X82622Y-43117D01*
X82468Y-42962D01*
X82392Y-42931D01*
X82443Y-42909D01*
X82471Y-42814D01*
X82156Y-42499D01*
X82150Y-42504D01*
X82079Y-42434D01*
X82085Y-42428D01*
X82079Y-42422D01*
X82150Y-42352D01*
X82156Y-42357D01*
X82471Y-42042D01*
X82443Y-41947D01*
X82237Y-41873D01*
X82019Y-41884D01*
X81919Y-41926D01*
X81919Y-41050D01*
X83552Y-41050D01*
X83552Y-41050D01*
G37*
G54D19*
X83552Y-41050D02*
X83525Y-41115D01*
X83524Y-41200D01*
X83487Y-41237D01*
X83422Y-41335D01*
X83412Y-41386D01*
X83384Y-41375D01*
X83215Y-41374D01*
X83059Y-41439D01*
X82939Y-41558D01*
X82875Y-41715D01*
X82874Y-41884D01*
X82939Y-42040D01*
X83000Y-42101D01*
X83000Y-44500D01*
X82900Y-44500D01*
X82785Y-44522D01*
X82710Y-44572D01*
X82710Y-42510D01*
X82699Y-42291D01*
X82637Y-42140D01*
X82541Y-42113D01*
X82226Y-42428D01*
X82541Y-42743D01*
X82637Y-42716D01*
X82710Y-42510D01*
X82710Y-44572D01*
X82687Y-44587D01*
X82683Y-44592D01*
X82705Y-44538D01*
X82706Y-44319D01*
X82622Y-44117D01*
X82531Y-44025D01*
X82531Y-43831D01*
X82622Y-43740D01*
X82705Y-43538D01*
X82706Y-43319D01*
X82622Y-43117D01*
X82468Y-42962D01*
X82392Y-42931D01*
X82443Y-42909D01*
X82471Y-42814D01*
X82156Y-42499D01*
X82150Y-42504D01*
X82079Y-42434D01*
X82085Y-42428D01*
X82079Y-42422D01*
X82150Y-42352D01*
X82156Y-42357D01*
X82471Y-42042D01*
X82443Y-41947D01*
X82237Y-41873D01*
X82019Y-41884D01*
X81919Y-41926D01*
X81919Y-41050D01*
X83552Y-41050D01*
G54D10*
G36*
X87217Y-42041D02*
X87081Y-42041D01*
X86989Y-42079D01*
X86918Y-42149D01*
X86880Y-42241D01*
X86880Y-42340D01*
X86880Y-42577D01*
X86918Y-42668D01*
X86954Y-42704D01*
X86948Y-42710D01*
X86885Y-42722D01*
X86787Y-42787D01*
X86587Y-42987D01*
X86522Y-43085D01*
X86500Y-43200D01*
X86500Y-43675D01*
X86481Y-43694D01*
X86481Y-43645D01*
X86481Y-43154D01*
X86480Y-43055D01*
X86442Y-42963D01*
X86379Y-42900D01*
X86442Y-42836D01*
X86480Y-42744D01*
X86481Y-42645D01*
X86481Y-42512D01*
X86418Y-42450D01*
X86025Y-42450D01*
X86025Y-42882D01*
X86042Y-42900D01*
X86025Y-42917D01*
X86025Y-43350D01*
X86418Y-43350D01*
X86481Y-43287D01*
X86481Y-43154D01*
X86481Y-43645D01*
X86481Y-43512D01*
X86418Y-43450D01*
X86025Y-43450D01*
X86025Y-43457D01*
X85925Y-43457D01*
X85925Y-43450D01*
X85917Y-43450D01*
X85917Y-43350D01*
X85925Y-43350D01*
X85925Y-42917D01*
X85907Y-42900D01*
X85925Y-42882D01*
X85925Y-42450D01*
X85917Y-42450D01*
X85917Y-42350D01*
X85925Y-42350D01*
X85925Y-42342D01*
X86025Y-42342D01*
X86025Y-42350D01*
X86418Y-42350D01*
X86481Y-42287D01*
X86481Y-42154D01*
X86480Y-42055D01*
X86442Y-41963D01*
X86372Y-41892D01*
X86280Y-41854D01*
X86087Y-41855D01*
X86025Y-41917D01*
X86025Y-41855D01*
X86105Y-41775D01*
X86931Y-41775D01*
X86956Y-41836D01*
X87027Y-41906D01*
X87119Y-41944D01*
X87151Y-41944D01*
X87212Y-42037D01*
X87217Y-42041D01*
X87217Y-42041D01*
G37*
G54D19*
X87217Y-42041D02*
X87081Y-42041D01*
X86989Y-42079D01*
X86918Y-42149D01*
X86880Y-42241D01*
X86880Y-42340D01*
X86880Y-42577D01*
X86918Y-42668D01*
X86954Y-42704D01*
X86948Y-42710D01*
X86885Y-42722D01*
X86787Y-42787D01*
X86587Y-42987D01*
X86522Y-43085D01*
X86500Y-43200D01*
X86500Y-43675D01*
X86481Y-43694D01*
X86481Y-43645D01*
X86481Y-43154D01*
X86480Y-43055D01*
X86442Y-42963D01*
X86379Y-42900D01*
X86442Y-42836D01*
X86480Y-42744D01*
X86481Y-42645D01*
X86481Y-42512D01*
X86418Y-42450D01*
X86025Y-42450D01*
X86025Y-42882D01*
X86042Y-42900D01*
X86025Y-42917D01*
X86025Y-43350D01*
X86418Y-43350D01*
X86481Y-43287D01*
X86481Y-43154D01*
X86481Y-43645D01*
X86481Y-43512D01*
X86418Y-43450D01*
X86025Y-43450D01*
X86025Y-43457D01*
X85925Y-43457D01*
X85925Y-43450D01*
X85917Y-43450D01*
X85917Y-43350D01*
X85925Y-43350D01*
X85925Y-42917D01*
X85907Y-42900D01*
X85925Y-42882D01*
X85925Y-42450D01*
X85917Y-42450D01*
X85917Y-42350D01*
X85925Y-42350D01*
X85925Y-42342D01*
X86025Y-42342D01*
X86025Y-42350D01*
X86418Y-42350D01*
X86481Y-42287D01*
X86481Y-42154D01*
X86480Y-42055D01*
X86442Y-41963D01*
X86372Y-41892D01*
X86280Y-41854D01*
X86087Y-41855D01*
X86025Y-41917D01*
X86025Y-41855D01*
X86105Y-41775D01*
X86931Y-41775D01*
X86956Y-41836D01*
X87027Y-41906D01*
X87119Y-41944D01*
X87151Y-41944D01*
X87212Y-42037D01*
X87217Y-42041D01*
G54D10*
G36*
X89395Y-46350D02*
X86950Y-46350D01*
X86950Y-44874D01*
X87012Y-44812D01*
X87012Y-44812D01*
X87012Y-44812D01*
X87441Y-44382D01*
X87441Y-44382D01*
X87506Y-44285D01*
X87529Y-44170D01*
X87529Y-44170D01*
X87529Y-43889D01*
X87540Y-43900D01*
X87631Y-43938D01*
X87731Y-43939D01*
X87687Y-43938D01*
X87750Y-43876D01*
X87750Y-43639D01*
X87742Y-43639D01*
X87742Y-43541D01*
X87750Y-43541D01*
X87750Y-43304D01*
X87687Y-43242D01*
X87731Y-43242D01*
X87631Y-43242D01*
X87540Y-43280D01*
X87514Y-43305D01*
X87503Y-43295D01*
X87539Y-43259D01*
X87577Y-43168D01*
X87577Y-43068D01*
X87577Y-42832D01*
X87539Y-42740D01*
X87503Y-42704D01*
X87539Y-42669D01*
X87577Y-42577D01*
X87577Y-42478D01*
X87577Y-42295D01*
X87599Y-42299D01*
X87600Y-42300D01*
X88022Y-42300D01*
X88022Y-42340D01*
X88022Y-42577D01*
X88060Y-42668D01*
X88070Y-42679D01*
X88070Y-42729D01*
X88060Y-42740D01*
X88022Y-42831D01*
X88022Y-42931D01*
X88022Y-43167D01*
X88060Y-43259D01*
X88096Y-43295D01*
X88085Y-43305D01*
X88059Y-43280D01*
X87968Y-43242D01*
X87868Y-43242D01*
X87912Y-43242D01*
X87850Y-43304D01*
X87850Y-43541D01*
X87857Y-43541D01*
X87857Y-43639D01*
X87850Y-43639D01*
X87850Y-43876D01*
X87912Y-43938D01*
X87868Y-43939D01*
X87968Y-43938D01*
X88059Y-43900D01*
X88085Y-43875D01*
X88130Y-43920D01*
X88222Y-43958D01*
X88321Y-43958D01*
X88518Y-43958D01*
X88610Y-43920D01*
X88681Y-43850D01*
X88719Y-43758D01*
X88719Y-43659D01*
X88719Y-43422D01*
X88681Y-43331D01*
X88645Y-43295D01*
X88681Y-43259D01*
X88719Y-43168D01*
X88719Y-43068D01*
X88719Y-42832D01*
X88681Y-42740D01*
X88670Y-42729D01*
X88670Y-42679D01*
X88681Y-42669D01*
X88719Y-42577D01*
X88719Y-42478D01*
X88719Y-42241D01*
X88681Y-42149D01*
X88663Y-42131D01*
X88648Y-42056D01*
X88582Y-41958D01*
X88582Y-41958D01*
X88543Y-41919D01*
X88572Y-41907D01*
X88642Y-41836D01*
X88680Y-41744D01*
X88681Y-41645D01*
X88681Y-41512D01*
X88618Y-41450D01*
X88225Y-41450D01*
X88225Y-41457D01*
X88125Y-41457D01*
X88125Y-41450D01*
X88117Y-41450D01*
X88117Y-41350D01*
X88125Y-41350D01*
X88125Y-41342D01*
X88225Y-41342D01*
X88225Y-41350D01*
X88618Y-41350D01*
X88681Y-41287D01*
X88681Y-41154D01*
X88680Y-41055D01*
X88678Y-41050D01*
X89395Y-41050D01*
X89395Y-46350D01*
X89395Y-46350D01*
G37*
G54D19*
X89395Y-46350D02*
X86950Y-46350D01*
X86950Y-44874D01*
X87012Y-44812D01*
X87012Y-44812D01*
X87012Y-44812D01*
X87441Y-44382D01*
X87441Y-44382D01*
X87506Y-44285D01*
X87529Y-44170D01*
X87529Y-44170D01*
X87529Y-43889D01*
X87540Y-43900D01*
X87631Y-43938D01*
X87731Y-43939D01*
X87687Y-43938D01*
X87750Y-43876D01*
X87750Y-43639D01*
X87742Y-43639D01*
X87742Y-43541D01*
X87750Y-43541D01*
X87750Y-43304D01*
X87687Y-43242D01*
X87731Y-43242D01*
X87631Y-43242D01*
X87540Y-43280D01*
X87514Y-43305D01*
X87503Y-43295D01*
X87539Y-43259D01*
X87577Y-43168D01*
X87577Y-43068D01*
X87577Y-42832D01*
X87539Y-42740D01*
X87503Y-42704D01*
X87539Y-42669D01*
X87577Y-42577D01*
X87577Y-42478D01*
X87577Y-42295D01*
X87599Y-42299D01*
X87600Y-42300D01*
X88022Y-42300D01*
X88022Y-42340D01*
X88022Y-42577D01*
X88060Y-42668D01*
X88070Y-42679D01*
X88070Y-42729D01*
X88060Y-42740D01*
X88022Y-42831D01*
X88022Y-42931D01*
X88022Y-43167D01*
X88060Y-43259D01*
X88096Y-43295D01*
X88085Y-43305D01*
X88059Y-43280D01*
X87968Y-43242D01*
X87868Y-43242D01*
X87912Y-43242D01*
X87850Y-43304D01*
X87850Y-43541D01*
X87857Y-43541D01*
X87857Y-43639D01*
X87850Y-43639D01*
X87850Y-43876D01*
X87912Y-43938D01*
X87868Y-43939D01*
X87968Y-43938D01*
X88059Y-43900D01*
X88085Y-43875D01*
X88130Y-43920D01*
X88222Y-43958D01*
X88321Y-43958D01*
X88518Y-43958D01*
X88610Y-43920D01*
X88681Y-43850D01*
X88719Y-43758D01*
X88719Y-43659D01*
X88719Y-43422D01*
X88681Y-43331D01*
X88645Y-43295D01*
X88681Y-43259D01*
X88719Y-43168D01*
X88719Y-43068D01*
X88719Y-42832D01*
X88681Y-42740D01*
X88670Y-42729D01*
X88670Y-42679D01*
X88681Y-42669D01*
X88719Y-42577D01*
X88719Y-42478D01*
X88719Y-42241D01*
X88681Y-42149D01*
X88663Y-42131D01*
X88648Y-42056D01*
X88582Y-41958D01*
X88582Y-41958D01*
X88543Y-41919D01*
X88572Y-41907D01*
X88642Y-41836D01*
X88680Y-41744D01*
X88681Y-41645D01*
X88681Y-41512D01*
X88618Y-41450D01*
X88225Y-41450D01*
X88225Y-41457D01*
X88125Y-41457D01*
X88125Y-41450D01*
X88117Y-41450D01*
X88117Y-41350D01*
X88125Y-41350D01*
X88125Y-41342D01*
X88225Y-41342D01*
X88225Y-41350D01*
X88618Y-41350D01*
X88681Y-41287D01*
X88681Y-41154D01*
X88680Y-41055D01*
X88678Y-41050D01*
X89395Y-41050D01*
X89395Y-46350D01*
M02*
